<?xml version="1.0" standalone="no"?>
<!DOCTYPE svg PUBLIC "-//W3C//DTD SVG 20010904//EN"
 "http://www.w3.org/TR/2001/REC-SVG-20010904/DTD/svg10.dtd">
<svg id="svg" version="1.0" xmlns="http://www.w3.org/2000/svg"
 width="1013.000000pt" height="867.000000pt" viewBox="0 0 1013.000000 867.000000"
 preserveAspectRatio="xMidYMid meet">

<g transform="translate(0.000000,867.000000) scale(0.100000,-0.100000)"
>
<path class="path" d="M2682 8034 c-7 -13 -13 -13 -35 -3 -30 14 -60 -2 -50 -27 7 -18 -18
-18 -43 1 -10 8 -26 15 -35 15 -20 0 -59 -41 -59 -62 0 -9 -11 -23 -25 -32
-14 -9 -25 -23 -25 -31 0 -7 -10 -30 -22 -50 l-21 -37 28 -22 c32 -26 29 -53
-7 -58 -50 -7 -63 -92 -17 -113 27 -12 37 -35 15 -35 -9 0 -16 -7 -16 -15 0
-9 9 -15 21 -15 19 0 20 -4 15 -36 -6 -30 -3 -38 18 -55 13 -10 27 -32 31 -49
8 -35 41 -80 60 -80 13 0 19 -28 31 -155 8 -84 19 -115 68 -178 21 -27 35 -51
33 -53 -12 -13 -117 158 -117 191 0 24 -16 18 -93 -36 -97 -69 -107 -82 -108
-138 -1 -44 -1 -45 -9 -13 -4 19 -20 46 -34 61 -16 17 -26 38 -26 57 0 42 -42
122 -93 177 -23 26 -51 61 -62 79 -23 38 -111 100 -134 96 -9 -2 -18 -14 -19
-28 -4 -24 -4 -23 -17 8 -14 32 -15 32 -85 32 -62 0 -74 -3 -95 -24 -14 -14
-27 -20 -30 -15 -11 17 -34 9 -70 -22 -54 -48 -68 -83 -62 -150 4 -52 3 -56
-14 -52 -28 8 -41 -38 -37 -129 2 -62 0 -74 -10 -66 -24 21 -36 -8 -35 -89 1
-43 6 -91 13 -108 14 -39 119 -145 142 -145 27 0 22 38 -7 52 -30 14 -67 90
-63 131 2 24 9 33 28 37 21 5 25 12 28 45 5 78 13 103 52 156 44 59 119 109
162 109 15 0 45 -9 67 -21 39 -20 41 -20 70 -3 47 28 99 7 156 -62 46 -57 53
-72 57 -134 3 -33 5 -35 35 -32 45 3 52 -29 23 -95 -12 -26 -28 -88 -36 -137
-15 -93 -40 -150 -112 -256 -43 -64 -76 -82 -152 -87 -42 -3 -62 1 -87 16 -37
23 -83 83 -119 154 -38 74 -48 62 -42 -50 5 -73 3 -92 -5 -75 -17 36 -43 26
-112 -42 -35 -36 -90 -82 -122 -104 -72 -49 -96 -75 -91 -99 4 -15 7 -13 18 9
7 16 36 42 64 60 28 17 86 65 129 106 105 101 111 94 147 -146 28 -191 50
-252 66 -186 9 34 -1 97 -36 251 -17 70 -33 162 -36 203 l-6 75 36 -60 c52
-85 94 -122 150 -130 56 -9 139 10 172 39 59 52 154 245 154 313 0 15 5 21 14
17 39 -15 96 133 96 252 l0 73 53 39 c28 21 64 46 79 56 l27 18 31 -64 c36
-70 105 -148 132 -148 27 0 22 15 -23 72 -64 81 -76 113 -88 232 -6 60 -11
113 -11 117 0 3 -13 12 -30 19 -22 9 -33 24 -45 61 -9 27 -24 53 -33 58 -11 6
-18 24 -19 48 -1 21 -3 49 -6 63 -2 14 -5 28 -6 33 0 4 -12 13 -26 19 -19 9
-25 18 -23 36 3 23 11 30 58 52 22 11 19 61 -5 74 -11 6 -21 11 -23 12 -7 3
53 107 64 111 7 3 18 20 24 38 13 41 29 48 65 29 39 -20 65 -18 65 5 0 27 15
34 39 19 16 -10 23 -9 39 5 25 23 39 21 58 -8 19 -29 58 -33 72 -8 13 22 42
10 42 -17 0 -41 19 -63 50 -56 48 9 60 -23 35 -101 -6 -18 -2 -25 18 -32 34
-13 49 -42 45 -89 -3 -32 0 -37 20 -40 26 -4 27 -13 8 -50 -9 -19 -13 -63 -13
-144 1 -103 -2 -121 -19 -145 -11 -16 -33 -52 -49 -80 -21 -39 -39 -58 -70
-73 -77 -37 -126 -26 -209 50 -31 27 -63 50 -71 50 -8 0 -15 -1 -15 -3 0 -10
47 -117 60 -136 21 -31 119 -54 175 -41 31 7 42 6 51 -5 6 -8 16 -15 23 -15
13 0 71 77 71 95 0 7 8 22 18 34 15 19 24 21 65 15 47 -7 47 -7 47 -46 0 -99
-94 -213 -204 -247 -36 -11 -61 -24 -61 -32 0 -26 53 -20 127 14 96 44 140 95
172 197 27 86 37 92 114 65 26 -9 80 -22 120 -30 112 -22 129 -36 206 -178 36
-68 75 -132 86 -142 29 -26 25 -40 -22 -91 -65 -70 -72 -72 -108 -22 -48 67
-60 79 -70 73 -16 -10 -12 -19 25 -73 53 -77 53 -87 0 -167 -25 -39 -48 -86
-51 -107 -5 -27 -12 -38 -30 -42 -41 -11 -50 -68 -46 -300 l2 -129 58 -54 c51
-48 50 -62 -3 -26 -43 29 -48 19 -42 -72 11 -151 71 -330 112 -330 15 0 19 6
17 25 -1 14 -3 63 -4 110 -2 106 24 181 87 247 43 44 43 44 73 29 30 -16 52
-7 52 21 0 7 18 31 40 53 119 119 352 72 483 -98 59 -77 96 -151 113 -231 19
-86 26 -129 18 -113 -3 6 -14 12 -23 12 -12 0 -22 13 -31 43 -20 69 -48 114
-86 144 -50 38 -134 42 -281 14 -61 -12 -117 -19 -125 -16 -8 3 -22 19 -32 35
-31 54 -60 32 -34 -25 10 -23 8 -28 -25 -59 -64 -58 -123 -220 -110 -299 l5
-36 -36 6 c-33 5 -36 3 -37 -18 -1 -13 0 -32 1 -43 1 -15 -3 -17 -22 -13 -60
14 -157 18 -177 8 -27 -15 -27 -44 -1 -181 11 -58 20 -118 20 -134 0 -15 -18
-84 -40 -153 -22 -68 -45 -155 -51 -191 -7 -37 -14 -61 -17 -53 -7 20 16 151
50 291 l31 125 -37 155 c-23 101 -42 159 -53 168 -9 6 -35 12 -56 12 -43 0
-43 3 -22 -90 3 -14 2 -18 -1 -10 -3 8 -12 20 -18 25 -8 7 -11 45 -8 125 4
114 4 116 31 131 37 22 65 117 50 171 -10 39 -41 68 -71 68 -12 0 -33 31 -68
100 -81 157 -164 221 -312 240 -112 14 -203 -15 -196 -63 2 -18 11 -23 45 -25
39 -3 43 -6 49 -37 5 -30 10 -34 43 -37 l36 -3 -42 -28 c-48 -33 -123 -48
-123 -25 0 8 11 25 25 38 14 13 25 27 25 32 0 13 -58 9 -97 -7 -48 -20 -53
-11 -15 28 55 56 35 74 -44 38 -51 -23 -78 -57 -105 -132 -25 -69 -44 -87
-128 -124 l-65 -28 -74 18 c-86 20 -173 63 -220 108 -46 44 -65 82 -21 41 44
-40 145 -101 189 -114 62 -18 123 -12 181 18 86 43 129 131 129 261 0 101 -12
129 -86 201 -36 36 -75 78 -86 93 -19 27 -19 28 -2 25 17 -3 19 3 17 43 l-2
45 47 -7 c26 -5 92 -15 147 -23 136 -20 234 -52 265 -84 18 -19 32 -56 49
-124 13 -54 27 -95 31 -93 7 5 -5 69 -31 167 -5 21 -20 49 -32 63 -31 35 -183
79 -341 100 -70 9 -133 18 -141 21 -20 8 -26 -10 -14 -45 14 -38 8 -47 -20
-30 -25 16 -37 6 -25 -20 5 -11 52 -66 104 -122 l95 -103 3 -82 c7 -142 -35
-236 -123 -275 -45 -21 -129 -25 -172 -8 -50 19 -178 108 -198 139 -11 16 -24
30 -28 30 -14 0 -18 -26 -8 -52 28 -75 139 -151 275 -187 74 -20 82 -21 132
-6 29 8 56 20 59 25 3 6 11 10 16 10 19 0 -53 -120 -111 -185 -61 -69 -96
-134 -87 -159 5 -11 20 -16 50 -16 25 0 49 -6 55 -13 16 -18 -28 -164 -66
-224 -17 -27 -34 -68 -38 -93 -3 -25 -12 -54 -19 -66 -16 -25 -12 -436 6 -766
15 -253 11 -288 -37 -372 -21 -36 -39 -64 -41 -62 -2 2 9 39 24 82 26 75 28
88 27 249 -1 94 -6 196 -13 227 -19 89 -97 189 -113 146 -3 -7 -1 -69 4 -138
15 -197 5 -378 -26 -482 -31 -106 -90 -239 -94 -216 -2 10 4 55 12 100 17 89
39 305 57 538 10 137 9 149 -12 225 -15 54 -32 90 -52 112 -28 30 -30 36 -28
112 1 45 -3 90 -9 101 -6 10 -31 31 -55 46 -79 46 -93 89 -54 173 26 57 79 89
105 64 42 -43 47 -61 40 -151 -5 -76 -4 -91 14 -120 11 -18 20 -48 20 -68 0
-46 20 -82 69 -127 64 -58 121 -63 121 -10 0 15 -10 56 -22 90 -22 61 -22 63
-5 127 38 143 15 222 -78 275 -73 41 -92 80 -76 158 15 74 -1 117 -59 161 -60
45 -93 105 -85 154 10 55 -3 95 -43 140 -34 38 -37 45 -42 127 -4 47 -10 94
-14 104 -12 26 -84 64 -136 72 -59 10 -74 18 -144 82 -76 68 -161 96 -233 77
-37 -10 -28 -39 15 -52 25 -8 43 -21 50 -37 9 -19 19 -25 44 -26 l33 -1 -42
-14 c-39 -14 -88 -59 -156 -144 l-28 -35 18 33 c10 18 39 57 65 87 27 29 48
56 48 60 0 4 -12 5 -27 2 -26 -5 -26 -4 -8 9 32 24 5 37 -66 32 -60 -4 -63 -6
-113 -59 -28 -30 -66 -72 -84 -94 -39 -48 -31 -20 13 50 35 54 59 78 119 118
l39 26 -27 11 c-65 24 -105 8 -187 -77 -77 -79 -116 -140 -150 -234 -24 -65
-29 -96 -29 -167 0 -117 -22 -203 -66 -265 -28 -39 -34 -55 -29 -76 16 -57 10
-95 -23 -140 -18 -24 -32 -52 -32 -62 0 -10 -4 -21 -10 -24 -6 -3 -10 -19 -10
-35 0 -36 -44 -72 -155 -128 -89 -44 -116 -68 -142 -127 -17 -37 -18 -74 -15
-475 4 -588 16 -691 89 -762 124 -120 324 -236 507 -293 72 -22 136 -44 142
-47 6 -4 14 -34 17 -68 13 -119 71 -200 301 -420 37 -36 93 -103 124 -150 34
-51 95 -122 153 -178 117 -112 134 -146 153 -304 19 -150 30 -192 88 -332 27
-65 59 -160 70 -210 12 -50 24 -93 28 -96 4 -3 15 -30 25 -60 26 -80 43 -109
70 -122 19 -9 22 -14 14 -25 -9 -10 4 -29 63 -86 98 -95 166 -135 249 -145
208 -25 251 100 92 265 -65 68 -87 105 -141 233 -50 119 -66 176 -30 110 79
-146 174 -311 200 -347 36 -50 87 -77 127 -68 15 3 43 21 61 40 30 31 34 42
43 123 10 84 9 94 -13 144 -12 29 -35 69 -51 89 -16 20 -38 57 -48 83 -11 25
-24 46 -28 46 -4 0 -28 -16 -52 -35 -24 -19 -51 -35 -60 -35 -9 1 -2 7 16 15
58 25 67 52 59 173 -3 59 -13 139 -22 177 -79 357 -109 543 -118 725 l-5 105
17 -50 c14 -40 30 -60 87 -107 113 -94 108 -92 214 -96 l96 -4 58 -56 c32 -32
65 -70 73 -85 8 -15 19 -25 23 -22 13 7 25 -13 51 -85 49 -140 108 -231 165
-256 25 -11 27 -13 8 -14 -34 0 -37 -18 -9 -54 23 -31 24 -33 6 -29 -18 5 -20
0 -20 -43 0 -54 29 -187 56 -255 10 -24 32 -67 50 -95 35 -56 94 -185 113
-249 46 -149 77 -195 156 -230 95 -42 164 -41 192 1 17 26 22 103 9 149 l-8
30 29 -27 c38 -36 77 -49 124 -42 47 8 55 21 65 101 10 97 2 119 -79 209 -40
45 -83 105 -96 133 -25 52 -37 59 -73 40 -20 -11 -20 -10 -4 12 13 20 16 55
17 214 1 295 15 677 26 705 9 22 15 10 51 -105 22 -71 50 -164 62 -205 38
-129 44 -137 212 -282 l27 -23 -16 -90 c-24 -133 -8 -248 48 -357 23 -43 61
-100 84 -126 23 -26 49 -61 58 -78 15 -29 15 -35 1 -64 -25 -50 -14 -112 33
-179 22 -31 63 -101 91 -156 64 -124 141 -229 184 -251 20 -11 57 -17 99 -18
84 0 119 19 119 67 0 34 -31 111 -56 138 -15 16 -18 16 -57 -2 -30 -13 -62
-18 -112 -17 -38 0 -56 3 -40 5 117 13 205 41 205 64 0 6 -11 25 -24 42 -13
18 -34 52 -46 77 -12 25 -43 70 -69 100 -56 66 -80 100 -115 162 -32 58 -34
78 -3 44 22 -25 106 -62 208 -92 29 -9 83 -34 118 -55 77 -46 119 -56 174 -39
77 23 121 97 85 142 -25 30 -137 108 -156 108 -11 0 -25 6 -31 14 -6 8 -42 19
-79 26 -86 15 -146 44 -160 76 -30 63 3 501 48 656 35 117 126 298 151 298 14
0 39 -56 39 -88 0 -16 20 -69 43 -118 47 -96 114 -170 145 -160 15 5 17 -5 14
-118 -4 -110 -2 -127 17 -165 21 -40 21 -41 2 -29 -11 7 -24 9 -28 4 -11 -11
-7 -284 6 -420 10 -102 13 -113 48 -164 26 -37 34 -57 26 -59 -16 -6 -17 -98
-2 -196 10 -66 15 -76 57 -121 28 -29 35 -41 18 -28 -49 37 -66 26 -66 -45 0
-71 22 -115 91 -186 59 -61 70 -68 100 -65 29 3 37 10 56 48 20 41 22 60 23
232 0 102 -3 193 -6 202 -3 9 -18 16 -33 16 l-26 1 28 15 c15 8 32 26 37 39
22 58 49 702 29 690 -5 -4 -9 -2 -9 4 0 5 5 13 10 16 18 11 53 87 67 145 7 30
18 150 24 265 5 116 13 221 16 235 14 55 22 -91 18 -327 -2 -134 0 -243 4
-243 11 0 22 471 13 552 -9 77 -16 88 -39 65 -14 -13 -18 -51 -25 -214 -15
-340 -43 -442 -143 -515 -38 -28 -44 -30 -108 -25 -61 5 -68 4 -65 -11 2 -9
21 -23 43 -31 49 -17 109 -3 154 34 l29 25 -4 -197 c-6 -251 -22 -453 -37
-472 -7 -8 -27 -20 -45 -28 -42 -17 -37 -37 11 -41 l37 -3 0 -190 c0 -171 -2
-194 -20 -229 -14 -27 -27 -40 -41 -40 -26 0 -125 94 -150 142 -18 35 -27 138
-13 138 3 0 29 -18 57 -40 50 -41 92 -58 105 -45 4 4 -6 18 -23 32 -127 109
-138 123 -152 187 -17 81 -17 177 0 174 18 -4 10 40 -13 76 -51 79 -58 107
-69 276 -13 196 -14 300 -3 300 4 0 13 -5 19 -11 14 -14 33 -3 33 17 0 8 -9
32 -20 54 -17 32 -20 59 -20 153 0 62 3 116 6 119 3 3 21 2 41 -4 44 -12 83
-3 83 19 0 9 -13 40 -30 69 l-29 53 27 -16 c29 -17 82 -12 82 7 0 28 -111 179
-156 212 -46 34 -64 57 -78 101 -4 13 -17 17 -61 17 -65 0 -73 16 -12 25 24 4
48 10 54 13 7 5 8 49 3 137 -5 72 -7 131 -5 133 1 2 23 -11 48 -28 25 -17 79
-45 119 -62 72 -31 76 -32 233 -31 151 0 166 1 261 31 55 17 131 39 169 47
108 25 253 85 275 113 l20 25 -1 -129 c0 -71 -4 -163 -8 -204 -7 -63 -6 -77 7
-88 14 -10 13 -12 -9 -12 -17 0 -50 -27 -122 -102 l-99 -102 22 -18 c30 -24
71 -23 104 3 36 29 41 20 11 -21 -13 -18 -22 -37 -19 -42 8 -13 73 82 67 98
-7 19 -12 18 -58 -11 -40 -25 -79 -32 -89 -17 -6 10 48 76 117 141 42 40 56
47 100 51 61 6 72 30 19 41 -18 4 -35 8 -37 10 -2 2 1 42 5 89 17 176 22 584
9 664 -11 63 -11 97 0 189 8 61 16 138 18 169 8 92 -12 161 -32 111 -4 -10
-11 -65 -16 -123 -4 -58 -13 -143 -19 -190 -14 -119 -13 -237 5 -371 14 -108
14 -115 -3 -139 -30 -40 -105 -69 -357 -141 -221 -62 -212 -61 -360 -56 -152
5 -184 14 -307 85 -76 44 -85 68 -93 263 -4 85 -11 172 -15 194 -5 22 -7 41
-5 43 2 2 17 -4 34 -12 34 -18 87 -21 96 -6 10 16 -19 55 -58 79 -63 39 -72
79 -70 291 3 184 -3 240 -24 247 -9 3 -9 -6 -2 -31 6 -20 9 -114 7 -209 -4
-217 3 -243 80 -314 54 -50 56 -53 30 -53 -15 0 -43 8 -63 17 -45 21 -57 11
-45 -42 4 -22 11 -105 15 -185 3 -80 13 -215 21 -300 21 -233 25 -214 -46
-228 -35 -8 -60 -18 -60 -25 0 -25 25 -37 74 -37 49 -1 52 -2 69 -38 9 -20 40
-55 68 -76 31 -24 71 -69 100 -115 46 -72 47 -76 26 -80 -15 -2 -30 7 -48 28
-14 17 -29 31 -32 31 -17 0 -4 -58 23 -107 17 -29 30 -57 30 -63 0 -15 -47
-12 -82 6 -24 13 -36 14 -55 5 -23 -10 -29 -8 -59 24 -41 44 -114 188 -114
226 0 34 -13 66 -40 99 l-20 25 -26 -30 c-28 -32 -112 -202 -137 -275 -45
-135 -85 -634 -55 -690 20 -37 72 -67 136 -80 31 -6 72 -16 90 -22 36 -11 36
-10 16 -92 -14 -58 32 -15 51 48 5 16 8 17 24 5 119 -89 121 -91 121 -119 0
-54 -89 -102 -157 -85 -16 3 -57 24 -93 45 -36 21 -90 46 -120 54 -85 25 -170
62 -192 84 -34 34 -43 166 -31 433 l11 229 35 39 c19 21 48 60 63 87 l29 49 0
215 0 215 55 36 c30 19 70 50 88 68 18 19 36 31 39 27 3 -3 10 -51 16 -106 8
-84 13 -100 26 -98 13 3 16 17 15 83 -2 74 -21 177 -84 442 -11 45 -20 87 -20
93 0 5 22 10 51 10 53 0 94 15 84 31 -4 5 -37 9 -75 9 -58 0 -71 3 -80 19 -5
11 -10 27 -10 35 0 13 6 12 43 -4 23 -11 54 -20 69 -20 51 0 105 30 92 52 -3
4 -29 8 -57 8 -29 0 -70 9 -94 20 -93 42 -108 121 -108 560 0 418 6 442 130
543 66 53 295 175 295 157 0 -7 -10 -48 -21 -93 -18 -69 -20 -100 -16 -198 l6
-117 78 -156 c43 -86 82 -156 86 -156 5 0 6 19 3 43 -13 97 -18 234 -8 267 8
28 9 17 5 -50 -6 -96 5 -153 30 -158 14 -3 17 5 17 40 0 58 34 179 71 253 63
124 72 161 65 249 -3 45 -9 95 -12 111 l-7 30 24 -21 c37 -33 79 -51 149 -64
76 -14 126 -6 140 20 13 24 -3 26 -40 5 -14 -8 -35 -14 -46 -15 -38 0 -158 68
-215 123 -54 52 -56 56 -89 173 -18 65 -35 123 -37 127 -3 5 -13 1 -23 -8 -23
-21 -43 -12 -75 34 -24 35 -32 58 -49 134 -4 15 -11 25 -15 22 -11 -6 10 -99
31 -140 27 -50 73 -88 100 -82 22 6 25 0 52 -99 16 -58 38 -117 48 -130 11
-13 17 -27 15 -31 -3 -5 3 -39 14 -78 10 -38 18 -100 18 -138 1 -61 -4 -79
-50 -180 -28 -61 -62 -152 -74 -202 l-23 -90 -1 70 c-1 41 9 115 24 180 16 69
21 113 15 119 -10 10 -9 12 -56 -119 -26 -71 -29 -93 -29 -197 l0 -118 -59
118 -59 117 -5 115 c-3 95 0 129 17 197 28 108 28 127 -1 119 -50 -13 -257
-128 -313 -173 -121 -97 -141 -191 -132 -622 8 -389 25 -462 119 -506 29 -14
70 -25 91 -25 23 0 36 -4 32 -10 -10 -17 -74 -11 -126 11 -27 12 -52 19 -56
16 -3 -3 -2 -26 1 -50 7 -44 7 -44 59 -55 40 -8 44 -10 17 -9 -56 2 -60 -5
-40 -75 10 -35 30 -119 45 -188 14 -69 28 -133 31 -142 4 -13 1 -16 -11 -12
-10 4 -28 -4 -48 -24 -140 -132 -336 -191 -599 -179 -91 4 -118 2 -118 -7 0
-7 11 -43 24 -80 19 -51 40 -83 88 -135 41 -43 69 -84 79 -114 23 -64 2 -63
-45 3 -36 51 -61 69 -74 56 -4 -4 10 -37 29 -74 20 -37 42 -83 48 -103 6 -20
23 -47 36 -59 27 -25 32 -40 14 -40 -18 0 -108 102 -135 153 -13 26 -29 47
-34 47 -14 0 -13 -1 16 -56 15 -27 48 -70 73 -96 46 -48 43 -60 -8 -34 -33 18
-94 83 -116 125 -15 30 -35 42 -35 22 0 -6 21 -38 48 -73 58 -77 142 -126 189
-110 21 7 28 15 26 34 l-1 25 76 -17 c43 -9 83 -19 90 -24 9 -5 12 -80 12
-309 0 -241 3 -315 15 -362 9 -33 19 -62 24 -65 4 -3 22 -27 41 -55 18 -27 52
-71 76 -96 23 -26 54 -71 69 -100 15 -30 37 -64 49 -77 20 -23 20 -24 2 -37
-22 -16 -92 -31 -188 -40 l-68 -6 -46 93 c-25 51 -62 115 -82 141 -25 35 -36
62 -39 95 -5 61 6 79 36 60 20 -11 24 -11 37 6 12 17 12 23 0 40 -8 12 -23 21
-35 20 -12 0 -21 3 -21 6 0 4 -27 40 -60 81 -128 157 -168 290 -141 472 12 79
15 86 31 77 26 -14 40 -12 40 5 0 8 -15 21 -32 28 -49 21 -177 130 -210 178
-16 24 -31 54 -35 68 -3 15 -33 116 -67 226 -47 152 -60 209 -55 236 6 43 -5
79 -25 79 -21 0 -26 -22 -15 -71 8 -32 6 -66 -5 -129 -11 -60 -17 -197 -21
-470 -4 -212 -9 -393 -12 -403 -2 -9 -23 -27 -45 -38 -30 -15 -37 -24 -29 -32
10 -10 38 -6 111 19 11 4 23 -11 41 -48 15 -29 56 -86 93 -127 36 -41 69 -85
73 -98 7 -31 -4 -154 -15 -165 -5 -5 -24 -11 -43 -14 -28 -5 -44 1 -84 28 -44
31 -58 50 -123 174 -103 194 -114 245 -141 650 -8 104 -19 175 -45 275 -42
163 -80 345 -96 457 -15 99 -30 116 -30 33 0 -93 28 -272 65 -416 37 -144 62
-323 71 -520 8 -172 43 -304 125 -467 33 -67 73 -140 87 -162 20 -32 26 -54
26 -100 1 -50 -3 -61 -24 -78 -32 -26 -88 -19 -168 19 -65 32 -87 63 -122 177
-29 93 -99 248 -139 311 -41 65 -81 191 -88 280 l-6 70 24 -22 c30 -28 97 -56
115 -49 23 9 4 35 -45 63 -50 28 -91 62 -91 74 0 4 12 9 28 11 36 4 35 28 -3
42 -16 6 -39 16 -50 23 -30 17 -83 112 -126 224 -38 100 -101 195 -121 183 -5
-3 -31 16 -57 43 -36 38 -50 60 -55 92 -9 61 -32 111 -50 111 -19 0 -13 -43
15 -109 11 -24 19 -45 19 -47 0 -2 -33 -4 -73 -4 -65 0 -79 4 -118 30 -83 55
-160 133 -169 170 -5 19 -16 55 -25 80 -21 56 -44 384 -49 702 -4 216 -14 298
-37 298 -5 0 -9 -123 -9 -299 l0 -300 -47 -3 c-45 -3 -48 -5 -78 -57 -41 -70
-52 -75 -120 -57 -30 8 -57 10 -60 6 -6 -10 63 -31 104 -32 41 -1 60 14 90 68
25 46 29 49 71 52 24 2 48 9 52 15 4 7 9 107 10 222 1 116 3 156 5 90 4 -209
24 -588 35 -645 5 -30 10 -62 10 -70 0 -8 4 -85 9 -170 9 -164 48 -409 99
-625 20 -84 33 -171 36 -245 6 -112 6 -116 -17 -136 -33 -29 -82 -44 -145 -44
-58 0 -71 -14 -28 -30 61 -24 156 -5 209 41 l34 30 21 -48 c11 -26 29 -57 39
-68 11 -11 31 -45 46 -75 25 -50 27 -60 21 -133 -8 -95 -25 -132 -71 -154 -28
-13 -38 -14 -64 -3 -38 15 -61 46 -141 185 -34 61 -77 135 -95 165 -65 113
-66 123 -76 500 -10 368 -9 363 -81 680 -28 123 -76 266 -101 297 -5 7 -13 10
-18 7 -18 -11 -8 -77 25 -177 19 -56 51 -158 70 -225 35 -119 36 -130 36 -285
0 -89 5 -252 10 -362 7 -169 13 -218 38 -315 42 -163 122 -338 188 -409 70
-76 114 -148 114 -186 0 -62 -65 -91 -169 -74 -76 11 -164 65 -247 150 l-49
51 67 -7 c74 -8 82 -5 166 62 57 47 43 61 -22 23 -49 -27 -61 -30 -144 -30
-88 0 -91 1 -110 28 -11 15 -30 61 -43 102 -13 41 -26 77 -30 80 -3 3 -13 37
-22 76 -9 40 -38 125 -65 190 -52 125 -75 213 -92 354 -18 149 -29 172 -146
285 -61 60 -124 132 -155 180 -35 54 -102 129 -204 230 -173 170 -213 231
-223 339 -5 55 -4 59 14 51 84 -35 131 -48 270 -74 88 -16 176 -32 196 -36 22
-3 58 -23 90 -49 29 -23 62 -48 73 -54 29 -15 145 10 162 35 7 10 22 29 33 41
23 27 25 38 8 45 -8 3 -1 9 14 15 19 8 30 22 37 49 17 61 14 79 -20 100 -26
17 -28 21 -15 33 23 18 19 47 -9 76 -14 14 -34 42 -45 64 -11 21 -43 69 -72
107 -66 86 -221 330 -255 403 -14 30 -43 91 -64 135 -42 89 -109 260 -109 280
0 9 26 14 98 17 83 3 107 8 164 35 75 35 137 92 169 155 l22 42 24 -29 c33
-41 78 -140 93 -203 14 -61 7 -262 -16 -462 -28 -242 -35 -346 -28 -433 4 -48
9 -85 12 -82 3 3 7 79 8 168 1 89 9 212 18 272 9 61 21 197 27 303 10 186 10
196 -11 265 -36 116 -95 217 -129 217 -9 0 -24 -17 -33 -38 -30 -65 -85 -119
-154 -153 -56 -28 -80 -33 -152 -36 -114 -5 -132 -9 -132 -32 0 -29 73 -215
140 -355 70 -148 186 -337 289 -476 39 -52 71 -98 71 -103 0 -4 -13 -1 -30 8
-40 21 -69 19 -124 -9 l-47 -24 -52 20 c-29 11 -66 33 -83 50 -30 28 -34 29
-70 18 -37 -11 -43 -9 -127 35 -48 26 -95 58 -104 71 -12 19 -21 22 -41 17
-19 -4 -24 -3 -20 8 4 8 16 38 29 67 33 79 14 88 -54 23 -30 -28 -59 -51 -66
-51 -23 0 -121 52 -130 68 -24 45 -83 243 -87 292 -8 95 -14 120 -29 120 -21
0 -22 -17 -9 -114 18 -128 21 -241 6 -258 -6 -8 -34 -25 -61 -38 -47 -21 -75
-50 -49 -50 6 0 -10 -18 -36 -41 -39 -35 -59 -69 -41 -69 15 0 75 37 127 77
l57 45 53 -17 c29 -10 91 -39 138 -65 243 -135 370 -187 524 -214 49 -9 91
-18 94 -20 2 -3 -12 -58 -33 -121 -26 -81 -34 -120 -27 -127 12 -12 43 46 87
164 39 104 69 116 199 82 62 -16 76 -26 76 -56 0 -14 -9 -17 -56 -17 -30 1
-58 -1 -61 -4 -3 -3 27 -22 66 -42 66 -33 92 -57 78 -72 -3 -3 -29 0 -57 7
-28 7 -54 9 -58 5 -12 -12 30 -35 64 -35 18 0 35 -4 38 -9 11 -17 -22 -31 -65
-29 -58 4 -65 -14 -11 -31 34 -10 40 -16 31 -27 -6 -7 -33 -17 -60 -20 -27 -4
-46 -11 -43 -16 4 -6 19 -8 35 -6 35 5 34 -13 -2 -22 -88 -24 -95 -23 -152 23
-29 25 -62 49 -73 55 -10 5 -96 24 -190 41 -162 29 -218 43 -344 89 -30 11
-109 37 -175 57 -139 42 -267 110 -413 219 -104 77 -122 103 -143 201 -15 76
-32 989 -19 1046 17 69 60 114 154 159 44 22 96 54 115 72 29 27 34 29 43 15
14 -25 23 -21 72 29 48 51 78 58 120 30 22 -14 25 -24 28 -88 3 -82 18 -96 47
-46 27 46 39 58 57 58 16 0 20 -7 28 -60 3 -20 28 -66 56 -104 28 -38 50 -80
50 -93 0 -13 -12 -45 -27 -71 l-28 -46 -7 43 c-4 25 -18 65 -30 90 -20 39 -28
46 -56 49 -28 3 -40 -4 -78 -41 -36 -37 -44 -51 -44 -82 0 -37 20 -64 88 -117
28 -22 28 -61 2 -128 -11 -28 -20 -65 -20 -83 0 -32 32 -97 48 -97 5 0 21 -11
36 -25 24 -22 26 -29 20 -78 -7 -60 -10 -55 75 -123 31 -25 49 -33 65 -28 36
11 66 46 72 85 6 34 8 37 26 26 16 -10 22 -8 39 12 10 13 19 29 19 37 0 18
-46 48 -60 39 -6 -4 0 16 14 44 14 28 26 67 26 87 0 42 -25 100 -47 108 -22 9
-28 -1 -14 -18 17 -20 5 -53 -21 -62 -29 -9 -48 19 -48 68 0 31 8 47 40 82 35
38 40 49 40 90 0 42 -5 52 -40 87 -22 22 -40 44 -40 49 0 6 23 35 50 65 57 63
61 84 25 137 -45 67 -31 75 38 23 55 -42 93 -58 119 -49 29 9 17 25 -44 61
-88 52 -112 89 -144 228 -6 29 -5 29 47 -21 61 -58 213 -133 284 -142 91 -10
138 48 182 223 38 155 38 274 -1 365 -16 36 -41 100 -57 143 -53 143 -83 178
-169 196 -64 14 -147 14 -155 1 -4 -6 17 -10 57 -10 138 0 194 -42 245 -181
17 -46 43 -113 58 -149 38 -90 43 -169 16 -300 -29 -148 -37 -172 -71 -218
-50 -70 -99 -69 -252 4 -76 37 -107 58 -138 96 -43 51 -70 61 -70 28 0 -36 42
-175 61 -202 11 -15 47 -45 82 -67 34 -23 57 -41 51 -41 -6 0 -42 20 -80 45
-71 47 -81 49 -98 23 -7 -12 -3 -26 17 -57 15 -22 27 -49 27 -60 0 -11 -20
-40 -45 -64 -57 -56 -59 -87 -11 -137 19 -19 37 -49 41 -67 5 -28 1 -38 -33
-75 -21 -24 -41 -49 -43 -57 -8 -22 -69 87 -69 123 0 19 10 46 25 66 37 50 33
87 -18 160 -60 88 -67 101 -67 138 0 25 -6 35 -26 44 -33 15 -52 4 -81 -48
l-23 -39 0 68 c0 59 -3 71 -25 92 -18 19 -35 25 -66 25 -37 0 -47 -5 -85 -47
l-43 -46 -7 27 c-10 42 2 94 31 133 38 48 49 95 34 138 -12 31 -10 37 24 87
45 66 69 162 66 267 -2 62 3 92 25 157 54 154 194 315 274 313 l37 0 -25 -17
c-70 -46 -160 -172 -160 -224 0 -36 29 -16 91 63 73 92 110 119 165 119 l39 0
-45 -29 c-85 -53 -180 -185 -153 -212 13 -13 22 -5 111 99 64 75 89 83 32 11
-38 -49 -59 -94 -47 -105 12 -12 48 19 96 85 59 79 103 111 153 111 19 0 38 3
41 7 13 12 -16 33 -53 39 -26 4 -41 13 -48 29 -6 14 -23 26 -41 30 -43 9 -39
25 5 25 64 0 110 -21 188 -87 65 -54 86 -65 134 -74 62 -12 117 -40 132 -69 6
-10 10 -45 10 -77 0 -78 16 -130 45 -149 31 -20 45 -65 44 -134 -1 -75 10 -99
76 -156 70 -59 79 -79 65 -154 -16 -86 5 -130 78 -173 95 -56 113 -116 76
-256 l-18 -73 22 -61 c39 -109 26 -130 -48 -81 -43 29 -68 61 -81 106 -11 40
-2 58 30 58 32 0 51 16 51 45 0 51 -51 60 -79 14 -19 -31 -19 -31 -30 -10 -8
14 -10 47 -5 95 8 91 2 116 -38 162 -27 31 -31 42 -29 84 4 81 -40 140 -106
140 -35 0 -63 -29 -63 -65 0 -12 16 -52 35 -91 19 -38 35 -75 35 -82 0 -7 -9
-30 -20 -52 -39 -76 -20 -141 53 -183 68 -40 71 -48 69 -147 -2 -83 -1 -89 22
-108 28 -21 36 -38 62 -130 17 -61 17 -71 -5 -330 -12 -147 -31 -316 -42 -377
-24 -137 -24 -175 -3 -175 20 0 84 137 119 255 33 109 42 272 27 470 -6 72 -8
132 -5 135 11 11 54 -58 70 -110 12 -42 16 -99 17 -235 l1 -180 -38 -113 c-62
-182 -40 -175 74 23 40 71 40 46 22 633 -8 263 -9 390 -2 405 6 12 33 40 61
62 57 45 219 127 230 117 4 -4 11 -43 17 -87 17 -134 67 -254 90 -216 8 12 3
48 -14 100 l-7 24 28 -20 c16 -12 38 -30 48 -42 11 -12 25 -21 33 -21 27 0 12
44 -42 119 -30 43 -60 99 -67 125 -12 44 -11 49 7 62 25 19 93 39 102 31 12
-13 22 -103 22 -213 1 -105 2 -112 26 -134 14 -13 25 -33 25 -45 0 -26 13 -43
65 -80 22 -16 61 -51 87 -77 26 -26 52 -48 58 -48 18 0 4 64 -31 139 -16 35
-29 74 -29 87 0 14 -7 41 -16 62 -9 20 -20 48 -25 62 -7 22 -7 23 4 6 6 -10
29 -39 50 -63 20 -25 55 -70 78 -101 22 -31 58 -79 79 -107 44 -54 47 -78 12
-83 -48 -7 -9 -53 83 -100 35 -18 84 -76 73 -87 -2 -3 -52 8 -111 22 -58 15
-110 24 -114 19 -15 -15 38 -44 123 -67 47 -12 109 -36 137 -53 l52 -31 22
-100 c69 -298 66 -275 57 -470 -5 -99 -8 -263 -7 -365 l2 -185 -262 0 c-201 1
-281 4 -345 17 -101 20 -212 69 -212 94 0 21 24 211 48 379 23 159 20 333 -8
530 -22 161 -31 195 -52 195 -13 0 -8 -63 22 -280 23 -167 23 -233 -3 -395 -9
-55 -21 -183 -26 -285 -6 -102 -19 -237 -31 -300 -11 -63 -20 -123 -20 -133 0
-12 16 -24 46 -37 26 -11 59 -29 74 -40 30 -21 75 -27 85 -10 3 6 -4 10 -17
10 -36 0 -168 71 -168 90 0 22 39 232 44 237 2 3 26 -7 53 -20 123 -62 264
-80 564 -71 l226 7 -1 206 c0 113 3 280 8 371 l8 165 -41 185 c-23 102 -45
195 -50 206 -6 13 -41 38 -83 59 -48 24 -62 35 -41 30 48 -10 56 0 33 44 -20
40 -73 91 -93 91 -7 0 -25 11 -42 25 -22 18 -26 24 -13 25 27 0 31 35 9 77
-12 21 -52 79 -91 128 -39 50 -95 125 -126 168 -81 112 -97 102 -44 -30 17
-41 30 -86 30 -99 0 -13 14 -54 30 -91 43 -95 39 -106 -22 -47 -29 28 -68 61
-85 73 -24 16 -33 30 -33 50 0 16 -10 37 -23 50 -22 20 -24 31 -30 164 -6 158
-16 197 -47 197 -41 0 -120 -41 -126 -66 -9 -35 21 -114 69 -180 65 -89 66
-92 8 -46 -30 23 -58 42 -62 42 -12 0 -11 -31 2 -69 6 -18 9 -34 6 -37 -10
-10 -44 119 -52 193 -4 41 -13 77 -21 84 -11 9 -36 0 -116 -39 -57 -27 -112
-60 -123 -72 -11 -12 -32 -28 -47 -36 -32 -17 -37 -5 -13 36 8 14 14 38 15 53
0 15 18 60 39 100 22 40 48 107 59 149 24 93 18 108 -51 115 -26 3 -47 10 -47
15 0 21 36 75 81 123 26 28 59 70 72 93 l24 43 5 -54 c3 -42 15 -72 47 -125
42 -70 43 -72 36 -136 -6 -56 -4 -72 15 -111 12 -25 31 -50 42 -56 32 -17 31
-4 -1 30 -34 37 -42 68 -38 162 2 61 0 68 -37 122 -53 78 -59 138 -21 228 15
35 38 92 52 126 27 68 59 106 103 122 l29 10 -30 -41 c-36 -50 -26 -70 24 -49
17 7 42 15 55 18 22 5 22 5 6 -24 -23 -40 -13 -63 28 -63 63 0 181 72 163 99
-3 6 -24 11 -46 11 -36 0 -39 2 -39 29 0 31 -14 41 -61 41 -36 0 -37 14 -2 37
20 13 45 18 98 17 170 -3 264 -68 355 -245 43 -84 54 -98 78 -101 20 -2 32
-13 45 -40 16 -33 17 -42 5 -90 -10 -41 -20 -57 -45 -73 l-31 -20 -4 -115 c-4
-107 -7 -121 -42 -203 -85 -195 -127 -222 -230 -152 -21 14 -43 24 -50 22 -18
-7 83 -65 125 -72 57 -10 76 7 139 125 69 127 75 133 95 86 8 -20 19 -36 25
-36 19 0 21 22 6 81 -9 33 -16 63 -16 65 0 2 14 4 31 4 38 0 47 -20 84 -193
l28 -127 -26 -103 c-48 -183 -69 -348 -47 -362 16 -10 37 36 49 105 6 36 30
125 53 199 l42 133 -25 149 c-32 183 -35 178 91 162 155 -20 179 -44 215 -215
18 -85 17 -89 -40 -157 -19 -24 -35 -51 -35 -61 0 -10 20 -42 44 -71 48 -58
53 -78 8 -37 -40 37 -74 58 -94 58 -11 0 -43 -39 -89 -107 -156 -235 -170
-299 -129 -587 26 -181 48 -298 59 -309 6 -6 49 -1 105 12 125 27 139 26 44
-5 -42 -13 -86 -32 -99 -42 l-22 -19 42 -249 c23 -137 42 -271 42 -299 1 -61
29 -167 46 -172 9 -3 9 7 -2 38 -9 24 -20 88 -26 143 -5 56 -24 182 -40 281
-46 272 -45 251 -18 268 13 9 68 29 122 44 54 15 99 33 100 38 4 19 -82 16
-179 -5 -54 -11 -100 -17 -104 -13 -4 4 -20 87 -36 183 -21 128 -29 210 -29
305 0 121 2 134 28 189 27 58 173 286 183 286 11 0 51 -25 89 -55 85 -68 104
-52 39 34 -25 33 -50 63 -55 66 -18 12 -9 42 24 81 59 69 60 74 38 178 -11 51
-23 100 -27 109 -12 32 5 17 40 -36 49 -73 155 -173 211 -198 25 -11 78 -26
118 -34 127 -24 216 12 237 98 5 23 19 74 30 112 11 39 21 79 22 89 3 17 12
19 103 17 108 -2 127 -11 141 -67 7 -28 3 -34 -101 -159 -70 -83 -96 -128 -82
-141 12 -13 50 21 118 106 39 50 77 89 83 87 18 -6 28 -125 17 -212 -18 -147
-64 -236 -144 -276 -33 -17 -54 -20 -117 -17 -66 3 -88 9 -162 45 -47 24 -112
63 -144 87 -77 58 -203 182 -255 251 -23 30 -46 55 -51 55 -23 0 38 -76 157
-195 135 -134 208 -186 342 -241 113 -46 250 -23 315 54 54 65 89 231 80 379
-7 118 -41 122 -121 15 -27 -37 -60 -77 -72 -87 -33 -30 -14 -2 78 113 46 57
83 110 83 118 0 22 -39 94 -53 99 -7 2 -60 5 -119 7 -89 3 -108 1 -108 -11 0
-19 -59 -231 -71 -257 -13 -26 -53 -50 -100 -58 -41 -7 -178 18 -224 42 -43
22 -160 137 -196 193 -20 32 -48 58 -84 78 -54 31 -75 55 -75 86 0 13 8 16 38
13 l37 -3 -2 45 c-4 101 53 250 114 297 26 20 34 32 30 49 l-4 22 26 -19 c25
-19 30 -19 96 -5 135 28 219 36 261 25 57 -16 109 -76 132 -152 15 -47 24 -63
40 -65 28 -4 35 -31 23 -84 -5 -23 -12 -67 -15 -96 -5 -48 -3 -52 10 -41 25
20 42 62 50 117 6 49 3 67 -37 251 -29 131 -155 292 -267 343 -88 40 -160 52
-227 38 -66 -14 -136 -59 -160 -104 -17 -31 -21 -33 -55 -29 -45 6 -84 -24
-123 -94 -42 -77 -58 -156 -51 -240 4 -40 4 -73 1 -73 -20 0 -73 183 -85 291
l-8 76 41 -18 c92 -42 100 -12 17 60 l-59 51 -6 152 c-9 235 10 283 103 258
103 -28 191 -142 224 -292 4 -15 15 -32 25 -38 20 -10 25 -9 188 26 79 18 83
18 140 -1 32 -10 66 -17 77 -16 10 1 70 23 134 48 63 24 130 47 147 50 55 9
60 -10 62 -272 1 -126 2 -233 3 -237 1 -19 29 -5 65 32 21 22 45 40 53 40 8 0
35 -18 60 -41 32 -27 53 -39 68 -36 18 3 26 -8 59 -87 56 -135 60 -136 81 -24
9 45 30 105 58 158 24 47 49 103 56 125 7 22 24 63 38 90 25 49 25 49 33 23
18 -68 20 -146 5 -198 -20 -65 -21 -113 -4 -108 7 3 31 36 53 74 l40 69 -3
185 -3 184 28 -26 c52 -48 81 -59 220 -84 76 -13 150 -29 164 -35 25 -10 57
-55 77 -110 l10 -25 -56 19 c-78 26 -164 26 -225 -1 -62 -28 -109 -61 -102
-73 4 -5 43 -9 88 -9 45 -1 96 -7 112 -14 29 -13 28 -13 -21 -8 -62 5 -72 -6
-40 -45 13 -15 27 -44 31 -63 4 -19 13 -38 19 -42 6 -5 2 -8 -11 -8 -12 0 -25
-5 -28 -11 -17 -26 8 -60 82 -112 96 -67 182 -157 217 -225 31 -60 66 -199 66
-258 0 -28 5 -44 15 -48 25 -9 38 31 31 103 -6 57 -5 63 7 43 23 -40 37 -7 37
88 l1 85 19 -55 c23 -66 25 -106 6 -113 -8 -3 -17 -19 -20 -36 -3 -17 -9 -44
-12 -61 -3 -16 -11 -30 -19 -30 -7 0 -15 -13 -18 -30 -5 -21 -12 -30 -25 -30
-11 0 -50 -29 -87 -65 l-68 -66 7 -69 c4 -38 12 -84 18 -102 5 -18 11 -118 13
-223 2 -190 13 -279 54 -439 9 -38 22 -71 28 -73 7 -3 18 9 27 24 27 53 38
152 32 288 l-5 130 14 -70 c19 -95 18 -200 -2 -290 -9 -41 -13 -78 -10 -82 12
-11 38 20 68 79 50 99 59 153 59 362 0 104 2 187 5 184 3 -2 14 -54 25 -114
21 -117 24 -202 10 -274 -11 -60 3 -72 28 -24 40 80 74 197 75 263 2 89 -19
226 -48 319 -14 42 -25 85 -25 94 0 22 23 34 83 41 l47 7 0 -36 c0 -46 44 -90
103 -102 54 -11 89 1 127 44 36 42 46 77 31 110 -6 14 -11 43 -11 65 0 29 -7
47 -25 65 -14 14 -25 32 -25 40 0 19 -45 64 -64 64 -8 0 -41 -20 -73 -44 -81
-61 -105 -66 -143 -28 -33 33 -39 66 -14 76 21 8 54 -11 54 -31 0 -9 -8 -22
-17 -29 -34 -24 -5 -25 49 -1 56 25 104 72 114 112 5 20 11 23 48 22 24 -1 50
4 60 12 21 17 21 84 0 105 -30 30 -53 17 -71 -39 -13 -41 -32 -38 -67 13 -26
36 -28 46 -18 60 7 9 21 36 32 59 15 30 29 44 54 53 89 29 92 103 6 184 -27
26 -50 52 -50 57 0 43 77 82 118 60 18 -10 20 -15 11 -38 -5 -15 -9 -70 -7
-124 3 -86 1 -101 -18 -125 -11 -16 -32 -31 -45 -34 -13 -3 -26 -14 -27 -24
-3 -15 0 -17 14 -11 11 5 48 9 84 9 64 1 65 2 82 36 15 31 27 92 45 227 4 33
9 42 26 45 12 2 30 -5 39 -14 25 -25 47 -12 54 33 4 22 12 39 19 39 8 0 19 2
27 5 7 3 20 -8 30 -24 20 -35 91 -75 119 -66 16 6 19 1 19 -30 0 -68 83 -121
124 -79 27 26 17 64 -31 115 l-25 27 23 16 c41 29 59 21 59 -25 0 -48 13 -76
48 -106 l25 -21 -39 -17 c-43 -18 -54 -30 -54 -61 0 -46 78 -75 116 -43 12 10
15 23 10 56 l-6 43 34 0 c31 0 33 -2 34 -35 1 -19 6 -44 12 -54 14 -26 13 -31
-5 -31 -55 0 -118 -78 -96 -119 21 -37 84 -49 144 -26 13 6 17 2 17 -14 0 -17
-4 -20 -23 -16 -18 5 -37 -4 -76 -35 -80 -64 -100 -129 -61 -205 11 -22 16
-41 11 -45 -19 -11 -31 -59 -21 -84 11 -29 47 -56 76 -56 12 0 47 14 78 30 63
34 70 27 25 -25 -38 -43 -69 -45 -139 -10 -75 38 -116 31 -145 -25 -21 -40
-19 -72 6 -104 l20 -26 -26 -10 c-40 -15 -80 -12 -98 8 -23 25 -21 39 7 57 26
17 60 90 50 106 -3 6 11 44 32 86 37 73 39 80 48 222 5 81 6 163 2 183 -8 42
-87 167 -137 217 -51 52 -130 84 -190 79 -66 -7 -109 -42 -164 -136 -56 -96
-90 -198 -109 -332 l-16 -104 25 -51 c46 -94 94 -170 126 -199 26 -23 28 -27
10 -21 -24 7 -61 -17 -61 -41 0 -23 -51 -54 -89 -54 -53 0 -109 -18 -120 -39
-7 -12 -5 -37 4 -77 7 -32 16 -96 20 -142 8 -95 8 -95 127 -144 145 -60 266
-46 387 44 l66 50 -50 -49 c-54 -54 -134 -90 -217 -100 -56 -7 -182 11 -251
35 -42 14 -49 15 -58 2 -5 -8 -6 -24 -3 -35 14 -45 16 -324 3 -520 -14 -208
-14 -440 -1 -545 8 -59 2 -54 92 -78 33 -9 31 -10 -27 -11 -34 -1 -65 -5 -68
-11 -15 -24 -36 -342 -24 -355 3 -3 19 -8 36 -11 55 -11 71 18 133 251 12 44
43 148 70 230 26 83 66 211 90 285 42 135 158 417 230 561 76 150 238 416 322
529 99 132 135 170 142 149 57 -176 98 -281 139 -357 49 -92 50 -95 55 -203 2
-60 8 -109 13 -109 4 0 13 17 20 37 26 80 -7 244 -85 420 -20 45 -36 85 -36
90 0 4 -12 44 -26 89 l-27 81 36 84 c20 46 46 121 58 166 l22 83 -22 92 c-12
51 -29 122 -37 157 -13 53 -13 66 -2 77 14 14 179 34 280 34 l59 0 -6 -57
c-17 -152 -36 -206 -143 -418 -53 -105 -72 -169 -72 -243 0 -76 17 -63 51 40
26 82 66 159 89 173 13 8 1 -24 -38 -102 -36 -70 -86 -226 -101 -308 -6 -35
-7 -78 -2 -103 16 -80 33 -69 50 31 7 38 27 117 46 175 18 59 46 147 61 195
14 48 28 86 31 84 5 -5 -30 -144 -51 -204 -8 -24 -18 -71 -21 -105 -4 -35 -13
-84 -22 -110 -12 -39 -12 -55 -2 -85 18 -58 49 -114 58 -108 5 3 12 53 15 112
4 68 15 138 30 188 32 109 56 206 72 294 14 78 24 103 24 55 -1 -33 -6 -61
-45 -229 -15 -66 -28 -136 -28 -155 -1 -59 23 -261 34 -281 27 -52 37 -5 45
221 5 146 8 172 30 222 14 32 29 92 33 135 l8 78 1 -70 c1 -38 -5 -117 -13
-175 -16 -110 -13 -161 12 -182 21 -17 29 1 37 76 4 33 21 112 37 175 20 77
29 138 29 189 0 42 5 112 11 156 10 73 9 90 -10 171 -46 191 -60 503 -27 606
22 66 102 175 202 274 42 41 74 81 71 87 -2 7 16 24 42 38 29 16 45 32 43 42
-3 17 62 38 120 38 l33 0 -41 -19 c-23 -11 -46 -26 -50 -34 -5 -8 -18 -16 -29
-19 -28 -5 -30 -33 -6 -65 27 -33 18 -43 -12 -15 -26 24 -57 28 -75 10 -23
-23 -12 -54 34 -98 111 -108 169 -221 183 -354 10 -94 4 -116 -55 -200 -54
-78 -76 -98 -148 -135 -76 -41 -151 -43 -220 -6 -52 28 -72 25 -55 -7 17 -32
96 -62 164 -61 70 1 112 16 178 67 26 20 50 36 53 36 8 0 -41 -63 -121 -157
-59 -69 -75 -95 -99 -168 -23 -68 -41 -100 -87 -154 -68 -82 -85 -113 -100
-181 -10 -47 -9 -55 20 -116 48 -103 50 -132 10 -217 -41 -89 -48 -167 -25
-290 18 -92 33 -137 48 -137 18 0 19 29 3 91 -16 62 -16 64 9 144 13 44 32
110 41 147 9 37 22 74 29 84 11 14 14 7 19 -49 5 -54 2 -82 -18 -148 -14 -46
-25 -104 -25 -130 0 -60 19 -149 31 -149 11 0 11 1 14 75 1 45 12 84 44 158
40 93 42 100 35 166 -3 39 -3 87 1 108 8 37 8 36 21 -37 20 -120 17 -169 -17
-267 -16 -48 -30 -106 -31 -129 -2 -72 24 -84 37 -17 4 21 27 75 51 121 39 74
44 92 45 150 1 81 13 163 22 142 3 -8 11 -48 17 -87 12 -76 7 -134 -17 -194
-16 -40 -15 -200 1 -164 83 188 98 258 90 405 l-4 75 18 -35 c13 -28 16 -55
14 -130 -7 -186 -7 -245 1 -272 14 -51 24 -29 31 66 5 71 16 121 45 207 43
123 77 319 66 376 -4 22 4 75 25 158 34 139 36 165 16 165 -23 0 -35 -23 -86
-169 -43 -125 -69 -187 -70 -171 0 3 14 56 30 119 17 62 30 124 30 137 0 37
-26 29 -57 -17 -26 -40 -45 -40 -24 0 19 34 13 71 -11 80 -33 13 -59 -15 -113
-121 -44 -85 -79 -123 -51 -55 23 56 47 129 71 219 13 48 38 115 56 150 17 34
38 79 45 98 23 62 15 8 -16 -104 -17 -66 -26 -115 -21 -124 12 -22 104 115
138 207 l28 76 3 -42 c2 -27 -6 -62 -23 -103 -19 -46 -25 -75 -23 -113 l3 -52
27 55 c22 46 26 51 27 29 1 -19 8 -28 23 -33 32 -8 39 3 59 91 9 43 18 67 18
53 2 -41 33 -81 118 -150 115 -93 123 -108 123 -212 0 -118 -11 -129 -162
-148 -86 -10 -119 -25 -77 -34 68 -14 122 -14 174 -1 31 8 60 15 65 15 17 0
11 -54 -20 -187 -16 -70 -39 -191 -50 -268 -35 -232 -85 -456 -114 -512 -66
-131 -263 -422 -329 -485 -32 -32 -60 -58 -62 -58 -8 0 -24 63 -30 115 -9 90
-25 132 -66 178 -45 49 -49 39 -14 -35 17 -35 25 -71 25 -107 0 -51 -2 -55
-47 -95 -26 -22 -76 -64 -112 -93 -36 -28 -86 -77 -111 -109 -30 -37 -80 -81
-147 -126 -88 -60 -105 -68 -122 -58 -29 15 -26 30 4 30 14 0 25 5 25 10 0 6
-24 10 -52 10 -68 0 -98 9 -98 27 0 11 10 14 35 12 36 -4 50 14 16 19 -22 4
-18 32 5 32 8 0 14 5 14 10 0 6 -6 10 -14 10 -8 0 -16 16 -19 42 -5 40 -3 45
29 71 46 39 44 54 -8 53 -34 -1 -43 3 -46 17 -4 17 1 18 62 12 119 -13 109
-18 369 199 141 118 141 137 -3 97 -38 -11 -121 -25 -184 -32 -109 -12 -119
-12 -252 14 -83 16 -142 23 -148 17 -18 -18 4 -38 88 -81 47 -24 86 -48 86
-53 0 -4 -42 -5 -95 -1 -61 4 -95 3 -95 -3 0 -34 64 -143 109 -187 55 -53 60
-68 34 -98 -20 -21 -27 -105 -11 -124 21 -26 1 -41 -54 -39 -52 1 -57 4 -110
57 -59 59 -69 83 -83 214 -7 63 -8 60 54 224 56 149 89 424 36 296 -27 -62
-73 -250 -105 -422 -40 -212 -62 -281 -121 -378 -27 -44 -71 -129 -97 -190
-72 -162 -130 -274 -168 -324 -19 -24 -34 -52 -34 -62 0 -11 -16 -36 -35 -58
-35 -38 -36 -43 -80 -287 -86 -482 -87 -484 -189 -593 -34 -37 -67 -75 -73
-86 -9 -15 -14 -17 -25 -7 -8 6 -39 16 -69 22 -111 23 -147 39 -154 68 -3 15
6 106 19 202 35 246 51 408 42 417 -13 13 -35 -27 -42 -76 -37 -271 -77 -471
-104 -526 -16 -33 -40 -89 -54 -124 -14 -35 -44 -88 -66 -117 -39 -51 -43 -54
-86 -54 -99 0 -170 76 -144 154 16 49 96 188 107 184 4 -2 15 -16 23 -33 21
-41 75 -75 119 -75 l36 0 -47 40 c-82 71 -87 86 -80 230 l7 125 38 1 c53 2 69
19 31 35 -33 14 -64 38 -64 49 0 4 26 10 58 12 60 4 113 24 120 45 4 15 -3 18
-81 33 -78 16 -101 39 -93 93 3 23 7 102 7 176 l2 133 47 47 c38 37 52 60 69
115 22 70 27 121 13 112 -5 -3 -26 -35 -48 -71 -51 -88 -98 -141 -145 -166
-21 -10 -39 -21 -39 -23 0 -24 -47 -180 -64 -215 -28 -54 -36 -95 -72 -346
-15 -104 -44 -261 -65 -349 -45 -189 -60 -212 -136 -209 -29 1 -57 9 -75 23
-16 11 -32 18 -37 15 -29 -18 -52 248 -33 377 21 134 25 208 13 208 -6 0 -11
-17 -11 -37 0 -21 -7 -81 -16 -133 -17 -103 -13 -331 7 -388 7 -21 6 -69 -5
-170 -23 -206 -22 -235 14 -297 17 -30 47 -68 66 -85 30 -26 41 -30 68 -24 43
9 71 37 95 98 34 86 40 134 40 321 -1 173 0 185 35 325 19 80 49 246 66 370
24 177 36 235 55 273 14 27 32 76 40 110 30 116 35 126 73 146 44 23 79 59
121 126 31 49 34 36 6 -30 -17 -40 -47 -70 -111 -111 -60 -38 -70 -59 -25 -49
28 6 28 5 34 -47 4 -29 2 -100 -3 -158 -12 -148 -7 -156 135 -185 l30 -7 -25
-13 c-14 -8 -50 -14 -81 -15 -36 0 -59 -5 -62 -12 -8 -22 11 -56 40 -72 l28
-16 -37 6 c-28 5 -38 3 -38 -7 0 -8 -5 -70 -10 -138 -10 -137 -9 -139 48 -210
23 -28 28 -40 16 -33 -29 16 -60 54 -71 87 -17 52 -35 40 -88 -56 -80 -145
-86 -200 -28 -261 38 -39 128 -61 177 -42 27 10 89 104 121 183 17 42 38 87
47 101 22 34 35 87 68 275 34 197 38 158 6 -65 -13 -91 -21 -182 -19 -202 5
-34 9 -39 57 -56 28 -11 72 -23 99 -26 67 -10 61 -30 -8 -24 -41 3 -67 13
-109 41 -31 20 -60 37 -65 37 -5 0 -14 -12 -19 -27 -96 -255 -100 -286 -52
-327 17 -14 46 -28 66 -32 54 -10 133 1 162 23 25 18 69 106 126 247 10 26 49
80 88 123 74 82 108 139 127 215 6 26 36 183 66 349 47 260 58 304 76 317 11
8 29 35 40 60 11 25 34 66 52 91 19 25 58 97 87 160 l55 113 13 -33 c19 -46
39 -164 47 -279 10 -148 34 -340 46 -361 5 -10 22 -25 38 -34 16 -8 31 -21 34
-30 8 -19 -7 -20 -23 0 -18 22 -23 19 -43 -25 -11 -24 -43 -58 -83 -90 -74
-58 -78 -74 -39 -157 13 -29 22 -53 20 -53 -11 0 -55 90 -55 113 0 40 -32 35
-69 -10 -57 -69 -88 -206 -57 -248 19 -26 113 -24 189 5 48 18 66 33 118 96
34 41 63 73 65 71 2 -2 -4 -25 -13 -52 -11 -35 -16 -93 -17 -197 -1 -134 1
-149 20 -175 45 -60 119 -56 191 10 60 55 71 81 94 209 23 134 24 165 3 213
-8 20 -14 38 -12 39 2 1 23 8 48 15 54 16 90 52 186 186 84 118 105 156 145
273 17 48 58 152 91 231 70 167 106 266 194 521 59 173 65 185 89 188 26 3 26
3 11 -26 -38 -74 -161 -407 -188 -511 -41 -155 -42 -227 -5 -309 28 -62 28
-65 22 -195 -9 -154 -1 -178 79 -256 61 -60 99 -62 156 -6 50 49 60 82 66 219
3 79 8 114 19 126 8 9 22 40 30 68 9 28 45 111 80 184 58 119 182 472 251 713
29 101 48 135 153 270 122 157 131 178 102 245 -12 28 -19 60 -16 72 3 13 0
31 -8 42 -13 18 -15 18 -62 -3 -68 -30 -67 -26 6 18 l64 39 11 -71 c9 -56 16
-75 38 -94 l27 -23 38 20 c49 25 135 119 208 229 31 47 78 116 105 152 58 81
114 198 161 339 20 58 53 151 75 205 43 108 74 206 68 212 -2 3 -26 -3 -53
-12 -59 -20 -148 -13 -210 16 -54 26 -56 43 -5 32 53 -11 240 -8 289 6 40 11
42 13 48 59 8 69 32 195 55 292 26 112 25 149 -6 254 -31 108 -39 121 -112
178 -182 144 -232 185 -274 225 -68 63 -61 67 -118 -83 -16 -44 -37 -89 -45
-100 -8 -10 -4 7 10 39 31 72 42 161 25 211 -6 20 -13 36 -16 36 -2 0 -33 -20
-70 -45 -36 -25 -70 -45 -76 -45 -15 0 -13 2 73 58 80 52 99 76 145 182 15 36
29 66 30 68 1 2 11 -2 23 -9 17 -12 23 -10 44 9 14 13 39 54 56 92 32 68 32
70 16 104 -13 28 -15 42 -7 65 20 57 25 163 10 206 -19 55 -187 305 -204 305
-8 0 -17 -7 -20 -15 -11 -28 -24 -15 -24 24 0 22 -4 42 -9 45 -5 4 -33 -14
-63 -40 -47 -41 -53 -43 -56 -25 -5 29 -12 27 -84 -18 -126 -80 -139 -91 -159
-139 -11 -26 -25 -58 -31 -72 l-10 -25 -10 25 -9 25 -19 -23 c-10 -13 -22 -44
-25 -70 -3 -26 -8 -59 -10 -73 -2 -15 2 -34 9 -44 11 -16 15 -14 44 21 39 47
39 38 7 -65 -24 -77 -38 -102 -34 -63 6 61 -24 70 -73 22 -28 -28 -30 -35 -26
-84 3 -36 12 -63 30 -87 18 -24 27 -52 31 -94 3 -33 9 -70 13 -82 6 -22 4 -23
-53 -23 -32 0 -64 -5 -70 -11 -9 -9 -13 -2 -18 27 -15 86 -37 135 -88 191
l-52 56 0 111 c0 172 -26 207 -235 315 -65 34 -123 67 -129 74 -6 8 -29 22
-50 32 -22 9 -42 23 -44 29 -2 6 -1 47 2 91 6 75 9 85 58 160 29 44 65 98 81
121 27 38 29 48 36 171 9 161 0 196 -65 267 -122 134 -301 152 -424 44 -55
-49 -125 -179 -125 -233 0 -28 -5 -37 -24 -45 -48 -18 -60 -112 -21 -175 17
-29 24 -55 25 -91 0 -40 6 -59 28 -87 15 -20 39 -54 54 -76 17 -25 46 -48 82
-66 l57 -28 65 18 c35 9 75 26 88 36 13 11 26 19 29 19 5 0 7 -30 8 -112 1
-109 -67 -194 -183 -229 -65 -20 -91 -40 -124 -95 -10 -17 -13 -14 -19 21 -12
71 -27 95 -81 133 -82 57 -86 70 -70 193 7 57 11 107 9 112 -9 16 -33 5 -48
-23 -18 -36 -60 -58 -205 -110 -242 -87 -351 -147 -369 -204 -15 -48 -24 -140
-16 -174 5 -23 28 -46 99 -98 51 -38 114 -82 141 -97 26 -15 45 -30 42 -33 -7
-8 -143 62 -200 102 -26 19 -52 34 -57 34 -13 0 -36 -50 -50 -108 -14 -53 -68
-114 -151 -170 -79 -53 -150 -70 -228 -54 -91 19 -139 50 -198 127 -29 38 -53
74 -53 79 0 5 13 -9 29 -31 106 -147 258 -194 402 -126 76 36 142 100 165 160
17 44 17 41 -13 156 -2 9 -12 17 -21 17 -12 0 -10 6 11 28 35 37 64 105 72
175 6 48 11 59 33 70 27 12 39 38 62 132 7 28 14 57 17 67 3 9 -4 25 -15 36
-20 20 -20 20 14 93 44 97 45 148 3 214 -17 27 -41 72 -53 100 -39 87 -120
134 -210 122 -26 -4 -50 0 -69 10 -39 19 -101 12 -131 -16 -12 -12 -33 -21
-47 -21 -39 0 -89 -36 -95 -70 -5 -22 -14 -32 -39 -40 -49 -16 -60 -34 -57
-99 2 -44 -3 -67 -24 -108 -23 -46 -25 -60 -19 -108 3 -30 11 -57 16 -61 7 -4
8 15 3 55 -6 54 -4 66 21 113 23 44 26 60 21 104 -7 57 7 79 60 93 21 5 30 14
32 34 4 31 42 61 90 70 19 4 45 16 59 27 27 21 78 26 103 10 12 -8 12 -11 -3
-28 -22 -24 -22 -45 1 -65 23 -21 36 -21 57 0 12 11 15 25 10 50 l-6 33 42 0
c52 0 122 -32 144 -66 9 -14 22 -43 30 -64 7 -21 27 -57 44 -80 43 -59 42
-109 -4 -210 -19 -43 -36 -84 -36 -91 -1 -8 -5 17 -10 55 -8 76 -29 113 -73
134 -25 13 -33 11 -76 -11 -97 -50 -159 -44 -225 23 -21 22 -47 40 -57 40 -56
0 -145 -150 -155 -261 -6 -60 -6 -60 -18 -32 -24 56 -75 49 -75 -10 0 -56 23
-108 62 -141 34 -29 38 -38 38 -77 l-1 -44 -13 31 c-8 17 -55 72 -104 122 -71
71 -102 94 -146 111 -70 26 -132 65 -146 91 -8 15 -7 31 5 65 8 25 15 52 15
59 0 7 13 32 29 57 16 24 35 61 42 82 12 33 11 42 -3 70 -13 23 -17 55 -16
117 2 111 -17 189 -61 253 -44 64 -102 95 -192 103 -132 13 -247 -53 -306
-174 -24 -51 -27 -70 -30 -176 -2 -66 -7 -135 -13 -154 -11 -41 -4 -77 21
-112 10 -14 27 -51 38 -82 11 -32 32 -73 46 -92 26 -34 26 -35 9 -61 -14 -22
-16 -41 -11 -125 10 -155 32 -190 139 -212 48 -10 67 -9 139 9 46 11 85 19 87
18 1 -1 -19 -13 -45 -26 -68 -34 -179 -33 -248 1 -73 37 -90 77 -90 213 0 124
3 121 -96 81 -126 -51 -244 -118 -295 -169 -46 -45 -53 -56 -63 -115 -16 -93
-31 -243 -31 -327 0 -40 -4 -73 -9 -73 -5 0 -18 11 -29 24 -16 21 -18 36 -14
100 3 53 1 76 -7 76 -6 0 -11 -12 -11 -27 -1 -115 -10 -174 -33 -219 -33 -64
-172 -201 -217 -214 -55 -16 -107 -2 -138 37 -15 18 -64 63 -110 99 -87 68
-108 99 -115 170 -4 36 -7 39 -36 42 -44 4 -58 36 -44 98 7 30 7 60 1 90 -7
32 -7 49 1 57 21 21 33 -9 38 -94 5 -78 15 -109 33 -109 4 0 10 44 14 98 18
256 16 247 70 297 49 44 50 45 90 33 23 -6 77 -11 121 -12 68 -1 88 3 135 26
31 15 66 41 78 58 13 16 27 30 33 30 18 0 37 -62 48 -158 7 -52 18 -125 26
-163 8 -39 15 -72 15 -75 0 -2 7 -4 15 -4 9 0 15 9 15 25 0 14 12 54 27 88 38
88 43 205 14 312 -27 98 -48 128 -115 159 -29 14 -65 41 -80 60 -34 45 -105
87 -148 88 -18 0 -74 -4 -125 -9 -74 -8 -101 -15 -135 -38 -47 -30 -168 -149
-168 -165 0 -5 23 -37 52 -72 l51 -63 -51 49 c-56 54 -82 56 -82 7 0 -43 -17
-47 -24 -6 -5 24 -2 42 9 57 8 13 15 31 15 41 0 10 11 51 24 90 20 59 24 92
24 186 0 106 -2 115 -23 135 -18 17 -25 40 -34 111 -16 116 -35 158 -104 223
-73 68 -125 91 -204 92 -115 0 -221 -57 -265 -144 -18 -35 -20 -52 -15 -126 5
-73 24 -155 52 -222 5 -14 2 -18 -14 -18 -56 0 -24 -100 55 -175 36 -35 60
-69 78 -112 14 -34 26 -67 26 -72 0 -6 -13 -26 -30 -44 -24 -27 -30 -45 -32
-83 -1 -37 -2 -41 -5 -16 -5 35 -23 42 -44 15 -8 -9 -57 -49 -109 -88 -89 -68
-162 -136 -193 -178 -12 -17 -13 -15 -13 17 0 30 4 36 21 36 23 0 135 107 135
129 0 7 -15 34 -34 60 -18 25 -55 87 -81 136 -70 133 -97 157 -203 176 -31 6
-87 19 -124 31 -87 26 -108 22 -124 -22 l-12 -35 -1 47 c-1 26 -5 50 -11 53
-5 3 -38 7 -74 8 -39 1 -62 6 -58 12 3 6 19 30 34 54 26 41 28 53 28 145 0 56
5 119 11 141 23 87 23 84 -5 91 -24 6 -25 9 -20 44 4 23 2 40 -5 44 -6 4 -11
16 -11 27 0 15 -6 19 -22 17 -24 -3 -24 -2 -11 65 8 42 -20 78 -60 75 -28 -3
-32 0 -35 23 -4 36 -35 63 -61 54 -12 -3 -21 -11 -21 -16 0 -18 -28 -8 -44 16
-19 28 -60 34 -74 9z m1473 -216 c117 -59 170 -138 187 -280 10 -82 15 -96 40
-120 24 -22 27 -31 21 -55 -4 -15 -7 -62 -6 -103 2 -53 -3 -90 -16 -125 -10
-27 -22 -68 -26 -90 -11 -64 -38 -92 -99 -105 -51 -10 -77 -8 -155 16 -34 10
-23 -15 20 -44 29 -20 43 -23 92 -19 32 3 69 13 83 22 14 9 28 14 31 12 2 -3
8 -49 13 -102 5 -53 11 -99 13 -102 17 -16 27 17 27 86 0 43 3 93 6 110 l6 31
65 -60 c60 -56 93 -74 93 -50 0 6 -30 46 -66 90 l-66 80 34 32 c18 18 40 43
48 55 8 12 42 38 74 58 48 28 70 35 113 35 29 0 72 5 96 12 39 10 49 9 90 -11
25 -12 63 -41 83 -64 21 -23 60 -54 88 -68 87 -43 115 -103 123 -264 5 -94 3
-104 -25 -175 -18 -45 -33 -69 -36 -60 -3 8 -15 77 -25 152 -19 128 -37 188
-61 203 -5 3 -31 -16 -58 -43 -35 -37 -61 -54 -102 -66 -66 -20 -97 -20 -194
-1 l-76 14 -51 -49 -52 -50 -9 -106 c-5 -59 -13 -123 -17 -143 -8 -32 -9 -29
-10 31 -1 63 -15 98 -41 98 -13 0 -40 -30 -40 -43 0 -7 5 -31 10 -55 7 -29 7
-56 -1 -87 -17 -69 13 -124 62 -113 8 2 15 -13 20 -43 10 -69 33 -104 97 -151
31 -23 83 -69 116 -101 l59 -59 74 4 75 3 87 90 c55 57 96 109 110 141 l24 52
36 -24 c20 -13 43 -30 52 -38 21 -21 83 -46 113 -46 18 0 26 -7 31 -27 3 -16
14 -36 22 -45 15 -17 14 -18 -6 -18 -52 0 -113 24 -156 62 -25 22 -51 38 -57
35 -10 -3 -13 -50 -13 -193 l0 -189 -29 -48 c-16 -26 -31 -46 -33 -43 -3 3 3
28 12 56 15 44 15 62 5 138 -15 116 -19 134 -29 127 -16 -9 -68 -109 -86 -165
-9 -30 -35 -88 -56 -128 -22 -39 -47 -104 -55 -143 -9 -38 -18 -69 -19 -67 -2
2 -24 51 -50 110 -26 59 -64 127 -84 150 -59 69 -76 97 -115 198 -38 95 -65
140 -67 110 -4 -58 25 -197 52 -252 10 -20 35 -49 54 -64 20 -15 33 -29 30
-32 -3 -3 -13 2 -23 11 -27 25 -48 21 -91 -18 -21 -19 -40 -35 -42 -35 -2 0
-4 98 -4 218 -1 181 -3 223 -17 255 -22 49 -40 48 -176 -4 -192 -74 -170 -70
-237 -47 -66 22 -85 21 -227 -14 -100 -24 -112 -20 -123 40 -11 64 -54 145
-103 195 -47 49 -108 87 -137 87 -8 0 -15 2 -15 5 0 9 55 103 100 170 56 82
70 95 211 202 l107 81 6 -45 c8 -60 51 -137 100 -179 68 -58 250 -119 317
-105 48 10 39 25 -21 33 -166 24 -252 68 -316 162 -31 46 -34 58 -34 119 0 62
3 73 31 108 35 45 35 52 -10 152 -21 47 -40 73 -65 89 -51 33 -110 148 -75
148 6 0 20 -5 31 -11 19 -10 20 -9 15 12 -3 13 -18 58 -33 99 -19 52 -28 102
-31 165 -5 87 -4 91 26 135 34 51 83 83 162 104 63 17 117 12 174 -16z m1822
-43 c112 -33 186 -191 169 -358 -5 -48 -4 -67 8 -82 9 -11 16 -28 16 -38 0
-15 -28 -75 -59 -127 -5 -8 -19 -46 -30 -84 -21 -66 -21 -69 -4 -100 17 -29
73 -64 173 -105 44 -19 193 -162 214 -206 9 -19 16 -59 16 -97 0 -40 5 -72 14
-84 14 -18 15 -18 25 9 7 17 8 69 4 137 l-6 109 -33 23 c-49 33 -86 144 -55
163 12 7 21 -7 41 -60 9 -22 20 -40 25 -40 6 0 13 38 16 86 4 62 13 101 33
145 27 59 80 124 101 124 6 0 24 -14 41 -31 67 -70 153 -83 242 -34 45 24 55
27 75 16 39 -21 51 -51 55 -146 4 -113 8 -127 28 -101 8 11 14 30 14 43 0 24
14 31 25 13 3 -5 -1 -33 -9 -62 -8 -29 -19 -68 -23 -87 -10 -41 -39 -64 -53
-41 -15 25 -23 3 -25 -73 -2 -39 -10 -89 -19 -111 -19 -47 -128 -172 -167
-192 -60 -31 -137 -9 -205 57 -36 35 -42 38 -54 25 -20 -25 51 -90 120 -110
98 -29 137 -22 215 43 l49 41 14 -53 c18 -70 4 -116 -54 -174 -94 -93 -233
-124 -335 -75 -48 23 -134 109 -182 182 -20 30 -32 39 -39 32 -19 -19 29 -115
89 -182 64 -71 106 -95 194 -111 110 -20 212 19 327 125 38 35 66 85 77 136
15 73 19 75 83 31 31 -21 93 -55 137 -77 44 -21 84 -40 88 -42 5 -2 7 9 5 24
-2 22 -15 36 -52 59 -26 17 -84 56 -128 88 -73 53 -79 60 -73 86 7 31 -15 58
-36 45 -9 -5 -10 7 -5 52 11 95 15 103 76 144 60 41 144 77 345 150 92 34 127
51 151 78 l32 33 -9 -47 c-5 -26 -10 -77 -11 -112 -2 -64 -1 -65 39 -101 22
-20 54 -47 72 -61 23 -18 35 -37 42 -70 17 -84 19 -90 32 -90 6 0 22 19 35 43
26 50 39 59 115 81 37 11 73 30 99 54 40 36 88 120 88 155 0 20 -10 25 100
-50 25 -17 78 -47 118 -67 220 -111 252 -153 250 -330 l-1 -106 -46 25 c-53
30 -199 59 -251 50 -80 -15 -258 -142 -315 -226 -111 -164 -126 -194 -244
-499 l-21 -55 6 65 c3 36 9 118 13 182 7 111 9 121 39 162 58 80 101 208 80
233 -6 8 -20 10 -34 7 -13 -3 -32 -3 -41 0 -13 6 -5 18 45 64 40 37 62 66 62
80 0 12 -2 22 -5 22 -14 0 -62 -30 -80 -50 -11 -12 -60 -51 -110 -85 -158
-111 -165 -128 -185 -484 -16 -270 -27 -317 -30 -121 -1 85 -5 229 -8 319 l-7
163 -48 44 c-27 25 -58 44 -70 43 -22 0 -22 0 -2 -12 11 -7 39 -30 61 -52 l42
-40 6 -220 c4 -121 10 -282 14 -357 l7 -138 -59 -6 c-63 -7 -100 -32 -92 -62
2 -9 7 -30 11 -47 6 -29 6 -29 -14 -11 -12 11 -21 24 -21 31 0 7 -9 20 -20 30
-14 13 -17 22 -10 29 14 14 13 59 -2 74 -20 20 -49 13 -79 -19 -28 -31 -30
-31 -44 -13 -15 21 -28 74 -20 82 3 3 26 0 53 -6 56 -13 71 -4 54 33 -13 27
-56 49 -80 40 -10 -4 -13 0 -9 15 7 27 -28 70 -57 70 -17 0 -27 10 -39 40 -17
45 -41 59 -68 42 -10 -7 -29 -12 -42 -12 -20 0 -23 4 -19 33 5 46 -37 97 -81
97 -39 0 -77 -35 -77 -70 0 -15 12 -44 26 -66 25 -36 25 -39 8 -51 -22 -16
-39 -16 -67 -2 -56 29 -87 79 -49 79 27 0 62 29 62 51 0 11 -11 24 -25 31 -36
16 -69 -2 -81 -43 -12 -41 -34 -47 -80 -23 -28 16 -38 16 -67 6 -18 -7 -40
-12 -48 -12 -9 0 -25 -9 -36 -19 -26 -25 -41 -27 -77 -12 -16 6 -42 9 -58 6
-39 -9 -88 -52 -88 -78 0 -11 26 -47 60 -83 33 -34 60 -69 60 -78 0 -20 -40
-63 -66 -70 -18 -6 -21 -2 -22 25 -2 68 -55 106 -101 72 -51 -39 -33 -93 39
-114 41 -12 43 -25 10 -69 l-19 -25 -21 28 c-38 48 -104 26 -124 -40 -8 -27
31 -73 62 -73 15 0 18 -6 14 -28 -5 -37 25 -63 77 -65 23 -1 41 -3 41 -5 0
-17 -37 -64 -63 -81 -42 -26 -43 -26 -50 -2 -2 10 -16 27 -31 36 -24 16 -28
16 -51 1 -30 -20 -31 -40 -5 -83 22 -36 71 -55 108 -42 12 5 47 28 78 51 58
43 73 44 98 6 8 -13 3 -23 -22 -46 -18 -17 -32 -35 -32 -41 0 -6 -6 -11 -14
-11 -19 0 -46 -39 -46 -66 0 -11 -8 -29 -19 -38 -17 -16 -19 -16 -24 4 -5 19
-10 20 -59 15 -60 -8 -102 -32 -106 -63 -2 -12 8 -53 22 -91 14 -39 30 -105
35 -148 6 -43 13 -99 17 -125 7 -51 -15 -167 -45 -233 l-18 -40 5 61 c5 71
-32 297 -54 332 -31 48 -35 25 -32 -180 3 -219 -4 -272 -49 -361 -13 -27 -26
-47 -29 -45 -2 3 1 31 7 64 25 131 -24 435 -63 396 -4 -4 -3 -66 3 -138 12
-134 7 -251 -12 -318 -6 -21 -14 -34 -18 -30 -13 15 -50 195 -62 300 -6 54 -9
146 -6 204 4 58 2 125 -4 150 -5 25 -15 82 -21 128 l-12 82 60 59 c32 32 68
60 79 62 11 2 25 15 32 28 6 14 18 28 26 33 9 4 18 30 22 58 7 49 28 85 44 75
4 -2 11 -47 14 -100 8 -118 26 -223 39 -231 7 -5 9 5 5 27 -10 54 -25 193 -38
339 -25 295 -50 383 -151 538 l-61 93 32 120 c17 66 37 133 44 150 l12 30 47
-98 c25 -54 59 -137 74 -185 30 -95 63 -162 79 -159 12 2 9 95 -6 171 -6 30
-36 109 -67 175 -63 137 -70 180 -33 219 13 14 121 74 240 133 197 98 300 159
310 185 4 13 -34 -8 -77 -40 -19 -14 -133 -76 -255 -136 -148 -75 -228 -120
-241 -138 -32 -45 -24 -92 37 -224 53 -112 67 -158 82 -264 10 -73 -12 -36
-57 96 -44 133 -113 279 -131 279 -19 0 -44 -61 -78 -196 l-32 -125 61 -92
c87 -129 125 -233 138 -374 7 -87 0 -101 -17 -33 -23 90 -49 66 -49 -44 0 -65
-2 -72 -13 -56 -28 37 -39 8 -33 -84 3 -47 3 -77 0 -66 -2 11 -14 63 -25 115
-38 172 -113 275 -289 398 -69 48 -77 72 -23 72 21 0 44 4 52 9 20 13 4 31
-28 31 -25 0 -30 5 -40 44 -6 24 -17 49 -26 56 -8 7 -15 16 -15 20 0 9 72 -4
113 -19 36 -14 37 -14 37 4 0 8 -21 26 -46 41 -35 21 -64 28 -127 33 l-82 6
35 22 c89 54 218 50 303 -9 16 -11 31 -17 34 -14 8 8 -44 130 -69 161 -20 26
-84 49 -170 61 -27 3 -48 10 -48 15 0 5 5 9 10 9 22 0 10 58 -15 77 -21 15
-27 30 -35 101 -22 174 -70 192 -58 21 6 -77 3 -80 -57 -55 -45 19 -49 40 -42
190 8 152 30 286 52 320 30 46 147 117 302 184 l88 38 1 -95 c0 -53 6 -112 12
-132 35 -102 188 -156 316 -110 130 46 173 102 183 238 5 62 4 75 -8 71 -9 -3
-16 -27 -21 -70 -12 -124 -76 -178 -231 -194 -52 -5 -72 -3 -109 14 -68 30
-78 52 -85 180 -4 71 -2 111 5 116 5 3 36 -8 67 -24 31 -17 72 -30 89 -30 73
0 206 56 206 86 0 19 -13 18 -57 -6 -51 -27 -180 -28 -239 -1 -53 24 -96 78
-118 148 -10 31 -30 74 -43 95 -18 27 -23 44 -18 60 4 13 10 86 14 163 7 123
11 146 33 190 38 74 99 131 163 153 44 15 134 14 192 -3z m2208 -34 c69 -33
137 -99 160 -154 24 -59 14 -291 -14 -327 -12 -14 -28 -38 -37 -55 -9 -16 -36
-58 -61 -93 -35 -52 -45 -75 -50 -123 -3 -32 -10 -56 -15 -53 -5 3 -6 21 -2
39 9 52 -3 59 -45 26 -20 -16 -60 -37 -89 -46 -90 -30 -151 3 -240 128 -26 36
-35 59 -38 101 -2 31 -12 69 -24 88 -27 44 -27 111 0 138 11 11 24 20 29 20 5
0 12 21 16 47 7 48 38 118 82 184 69 104 208 138 328 80z m-1327 -305 c2 -10
-1 -23 -7 -29 -15 -15 -46 16 -37 38 8 21 40 15 44 -9z m-4939 -49 c5 -13 12
-44 16 -69 15 -101 50 -85 40 20 -3 34 -2 62 2 62 4 0 29 -15 55 -32 53 -36
82 -85 93 -155 8 -48 19 -55 32 -18 8 24 9 24 41 -23 20 -30 36 -68 41 -101 6
-36 17 -61 37 -82 27 -28 29 -36 29 -102 0 -54 -5 -79 -19 -100 -27 -40 -29
-27 -5 28 16 37 19 55 12 79 -8 26 -14 31 -41 31 -29 0 -32 3 -32 30 -1 74
-85 184 -158 206 -36 10 -48 10 -75 -3 -30 -14 -35 -14 -67 3 -19 10 -48 18
-64 19 -70 1 -175 -84 -217 -175 -10 -22 -19 -60 -19 -85 0 -41 -3 -47 -30
-57 -25 -10 -30 -17 -30 -46 0 -19 7 -51 16 -72 22 -54 10 -55 -25 -1 -31 49
-49 144 -36 186 l7 22 22 -21 c28 -26 51 -28 41 -3 -36 84 -40 131 -18 207 5
17 8 17 29 -10 31 -39 40 -26 26 36 -22 94 -17 124 30 175 22 24 46 43 51 41
6 -2 20 -36 31 -77 12 -40 27 -75 35 -78 14 -5 14 8 -5 127 -9 54 0 61 84 61
56 0 63 -2 71 -23z m759 -191 c52 -49 87 -66 133 -66 37 0 97 25 126 52 30 28
29 17 -4 -43 -26 -49 -43 -62 -43 -34 0 18 -12 19 -63 4 -51 -14 -143 6 -162
35 -19 28 -47 96 -40 96 3 0 27 -20 53 -44z m423 -139 c-12 -31 -76 -104 -105
-119 -12 -6 -3 6 20 25 22 20 51 56 64 81 26 48 37 55 21 13z m2774 -128 l60
-1 -42 -10 c-47 -12 -100 -5 -129 17 -17 13 -16 13 16 5 19 -6 62 -11 95 -11z
m3552 -76 c6 -2 18 8 26 23 l14 27 49 -77 c27 -43 66 -101 87 -129 60 -82 68
-134 42 -262 -14 -69 -14 -77 1 -100 16 -24 15 -28 -15 -88 -17 -34 -38 -71
-47 -82 -15 -20 -15 -20 -34 5 -10 14 -21 23 -23 20 -3 -3 -22 -43 -43 -90
-53 -119 -66 -135 -159 -195 -98 -63 -112 -68 -162 -59 -30 5 -53 22 -106 77
-37 39 -70 68 -73 64 -20 -20 56 -116 118 -148 84 -43 168 -34 259 27 64 43
72 36 66 -56 -7 -116 -80 -240 -190 -323 -90 -69 -121 -84 -183 -92 -44 -6
-54 -3 -96 25 -51 34 -88 77 -132 153 -30 52 -46 60 -46 22 0 -94 132 -206
277 -236 53 -11 66 -10 105 4 61 24 114 71 188 169 69 92 109 165 136 251 18
58 32 69 54 42 7 -8 88 -76 182 -151 93 -75 175 -149 183 -164 24 -46 55 -172
55 -220 0 -25 -14 -101 -30 -170 -16 -69 -33 -155 -36 -192 -4 -36 -10 -71
-13 -77 -18 -29 -238 -40 -317 -16 -62 19 -64 19 -64 -4 0 -26 52 -68 103 -82
50 -14 141 -17 181 -6 27 8 28 7 21 -20 -3 -15 -33 -97 -66 -181 -32 -84 -59
-158 -59 -163 0 -6 -19 -58 -41 -116 -31 -80 -68 -145 -147 -262 -136 -202
-146 -216 -206 -279 -65 -69 -95 -85 -120 -67 -20 15 -35 70 -36 127 0 20 -5
40 -10 43 -6 4 -38 -9 -70 -28 -32 -20 -87 -46 -122 -58 -70 -25 -94 -41 -83
-59 11 -18 78 -2 158 36 39 18 74 31 79 28 4 -3 8 -25 8 -50 0 -25 7 -56 16
-69 29 -44 17 -68 -120 -240 -91 -115 -103 -139 -156 -313 -98 -320 -173 -532
-239 -670 -38 -81 -72 -162 -76 -180 -9 -44 -30 -62 -71 -62 -42 0 -81 19
-150 71 -54 41 -74 48 -74 25 0 -38 155 -126 222 -126 31 0 39 -32 28 -117 -5
-43 -13 -91 -16 -108 -9 -41 -49 -90 -85 -105 -28 -12 -34 -10 -72 16 -48 34
-95 105 -98 149 -1 17 1 78 5 136 8 105 8 106 -24 179 -29 67 -32 80 -26 140
7 84 55 255 111 395 24 61 57 147 75 192 17 46 36 85 41 88 5 4 9 15 9 26 0
13 -7 19 -22 19 -54 0 -68 -11 -83 -64 -32 -109 -150 -438 -207 -576 -33 -80
-84 -211 -115 -292 -33 -90 -71 -170 -96 -207 -157 -226 -161 -231 -202 -251
-23 -11 -51 -20 -63 -20 -31 0 -36 -21 -18 -65 21 -49 20 -89 -3 -219 -23
-123 -43 -161 -110 -206 -82 -55 -143 -32 -157 58 -10 67 2 249 21 312 10 30
37 92 61 136 57 105 79 170 169 499 49 179 121 558 109 577 -17 28 -36 -42
-54 -205 -7 -55 -34 -167 -74 -300 -36 -117 -78 -264 -95 -327 -17 -63 -36
-131 -41 -150 -16 -56 -59 -123 -143 -219 -85 -97 -127 -124 -214 -136 -69 -9
-93 4 -93 52 0 56 31 140 65 181 l32 36 6 -31 c7 -34 83 -150 109 -167 33 -21
29 3 -16 89 -25 48 -46 96 -46 107 0 13 31 51 82 99 64 61 86 76 99 69 20 -11
29 -4 29 26 0 14 -15 35 -40 56 -37 31 -40 38 -50 108 -6 41 -15 131 -20 200
-13 165 -30 286 -46 334 -27 75 -11 138 62 252 50 79 62 106 87 195 l24 82 17
-74 c16 -71 19 -77 79 -131 62 -55 64 -56 123 -55 92 1 138 -11 170 -44 15
-16 33 -29 39 -29 7 0 60 32 120 72 76 51 119 88 147 125 21 29 73 81 116 114
42 33 96 79 120 100 39 37 42 44 42 91 0 72 7 57 19 -41 10 -78 29 -121 52
-121 23 0 139 136 212 248 146 222 185 286 202 327 19 45 74 312 100 480 9 61
32 181 51 267 52 237 49 250 -44 219 -34 -12 -78 -21 -99 -20 l-38 1 35 8 c19
5 52 11 72 15 21 3 51 17 68 31 29 25 30 28 30 117 0 114 -9 130 -122 224 -45
39 -90 78 -98 88 -10 11 -17 48 -20 103 -5 89 -24 123 -34 60 -3 -18 -10 -69
-17 -113 -14 -97 -26 -132 -40 -118 -7 7 -7 28 -1 64 18 98 -3 102 -38 7 -13
-35 -25 -58 -27 -51 -2 6 7 38 21 72 15 33 26 80 27 103 0 24 4 65 8 91 8 50
-1 71 -18 39 -5 -10 -28 -66 -50 -125 -35 -94 -96 -205 -107 -195 -2 2 8 44
22 93 37 136 14 231 -26 105 -9 -30 -31 -84 -49 -119 -18 -35 -42 -100 -53
-145 -11 -44 -26 -90 -33 -101 -7 -11 -16 -38 -20 -60 -4 -21 -13 -52 -22 -68
-20 -39 -11 -60 19 -46 14 6 41 44 67 94 24 46 54 94 67 106 21 20 24 20 30 5
4 -10 -1 -40 -10 -68 -18 -57 -21 -108 -6 -108 6 0 10 4 10 8 0 14 74 126 77
116 2 -5 -12 -69 -31 -141 -19 -72 -31 -134 -28 -137 14 -15 33 -3 48 32 9 20
34 89 56 152 40 114 67 175 68 154 0 -6 -13 -65 -29 -130 -18 -75 -27 -134
-24 -161 8 -65 -25 -249 -63 -358 -20 -55 -39 -125 -44 -155 l-9 -55 4 60 c2
33 7 89 11 125 5 55 2 79 -21 153 -15 48 -31 87 -36 87 -15 0 -21 -69 -15
-153 9 -99 -5 -197 -39 -272 -13 -30 -27 -55 -30 -55 -8 0 5 67 20 105 23 55
26 118 10 205 -8 47 -15 102 -15 123 0 25 -4 37 -12 35 -18 -6 -34 -78 -42
-188 -7 -106 -13 -125 -66 -220 -38 -69 -38 -61 1 59 28 88 30 102 23 171 -4
41 -8 112 -8 158 -1 45 -4 82 -8 82 -3 0 -17 -21 -30 -47 -20 -41 -23 -64 -24
-158 0 -102 -3 -115 -33 -180 -18 -38 -36 -86 -41 -105 -7 -33 -8 -31 -9 21
-1 34 7 79 20 115 16 47 21 81 20 163 -1 58 -4 107 -6 109 -18 18 -80 -115
-95 -203 -5 -27 -16 -67 -24 -87 -9 -21 -16 -50 -17 -65 l0 -28 -10 25 c-6 14
-9 61 -7 105 2 65 9 92 31 135 45 87 46 131 3 220 -20 41 -36 82 -36 90 0 51
35 122 99 202 55 70 75 105 96 169 22 66 39 94 89 151 76 87 131 162 157 210
21 41 25 63 9 53 -16 -10 -12 3 18 47 25 38 27 49 27 142 0 87 -4 111 -28 171
-31 77 -54 111 -139 208 -32 35 -58 72 -58 81 0 26 36 19 73 -14 19 -16 37
-30 41 -30 13 0 5 47 -14 78 -23 38 -24 42 -9 42 6 0 27 14 46 30 28 25 42 30
85 30 46 0 50 2 45 21 -5 19 -2 18 46 -9 29 -16 57 -27 63 -25 6 2 34 -21 61
-50 52 -57 71 -103 80 -194 3 -29 10 -56 14 -59 5 -3 9 -1 9 5 0 26 33 41 94
41 34 0 65 2 68 6 3 3 -1 26 -8 51 -8 25 -14 65 -14 88 0 27 -7 51 -20 68 -38
49 -52 95 -40 133 11 31 35 54 58 54 5 0 9 -25 8 -55 0 -30 4 -56 9 -57 10 -3
76 181 90 250 9 45 -9 42 -57 -10 l-39 -43 7 55 c4 30 10 66 14 80 l7 25 7
-23 c10 -31 28 -24 46 19 47 107 66 135 115 166 28 17 65 41 84 52 31 20 34
20 46 5 11 -16 15 -16 47 4 19 12 43 31 53 43 l20 21 10 -48 c5 -26 15 -49 22
-51z m-7139 -119 c-7 -15 -14 -21 -16 -15 -2 7 2 18 8 26 18 22 21 18 8 -11z
m-638 -74 c0 -5 -2 -10 -4 -10 -3 0 -8 5 -11 10 -3 6 -1 10 4 10 6 0 11 -4 11
-10z m4857 -107 c-2 -16 -4 -5 -4 22 0 28 2 40 4 28 2 -13 2 -35 0 -50z
m-3025 -72 c-9 -16 -18 -28 -21 -26 -4 5 27 55 34 55 2 0 -4 -13 -13 -29z
m4371 -171 c-35 -32 -63 -63 -63 -68 0 -19 30 -33 62 -30 31 3 33 1 30 -27 -6
-48 -41 -127 -77 -173 -37 -48 -36 -43 -55 -297 -6 -82 -13 -171 -17 -197 -3
-27 -2 -48 3 -48 5 0 29 57 53 128 24 70 63 175 87 234 38 95 63 140 163 292
36 55 158 156 234 195 49 25 74 32 108 29 l44 -3 -50 -12 c-88 -21 -109 -31
-95 -48 10 -12 2 -19 -53 -44 -76 -34 -99 -58 -46 -47 33 6 33 6 -30 -55 -111
-108 -189 -216 -212 -292 -37 -121 -30 -354 18 -587 24 -114 25 -132 14 -206
-6 -44 -11 -113 -11 -153 0 -49 -10 -113 -30 -190 -16 -64 -32 -138 -35 -165
-5 -35 -10 -45 -18 -37 -8 8 -6 46 6 139 24 182 20 320 -10 330 -9 2 -13 -11
-13 -45 -1 -88 -19 -191 -45 -252 -21 -52 -25 -77 -26 -173 -2 -142 -12 -253
-21 -218 -9 33 -22 175 -21 225 0 22 17 113 37 202 20 89 36 178 36 197 0 41
-17 89 -28 82 -5 -3 -17 -49 -26 -103 -10 -54 -26 -128 -37 -165 -10 -36 -19
-75 -19 -87 0 -11 -11 -50 -25 -87 -17 -44 -25 -89 -26 -133 -1 -36 -4 -79 -8
-96 -7 -29 -7 -29 -25 23 -17 49 -17 58 -3 105 8 29 19 84 25 122 6 39 22 111
37 160 15 50 36 121 47 159 23 77 30 207 11 213 -7 3 -14 -16 -18 -54 -8 -70
-38 -175 -43 -150 -6 32 -45 15 -77 -33 -17 -25 -39 -72 -50 -105 -20 -63 -38
-95 -29 -54 18 86 32 123 70 199 107 208 132 283 150 449 l6 64 -106 -5 -107
-6 6 62 c3 33 8 81 10 106 3 25 9 126 15 225 12 212 24 288 52 333 11 19 71
71 132 116 61 45 117 90 125 99 7 9 19 17 25 17 6 0 -17 -27 -51 -60z m-2530
-97 c5 -58 3 -63 -15 -63 -13 0 -17 4 -11 12 4 7 6 44 5 83 -2 84 12 61 21
-32z m-3535 -173 c0 -14 -6 -4 -13 25 -7 28 -13 61 -13 75 0 14 6 4 13 -25 7
-27 13 -61 13 -75z m3592 50 c0 -11 -2 -20 -5 -20 -2 0 -9 9 -15 20 -9 16 -8
20 5 20 8 0 15 -9 15 -20z m-4361 -109 c-46 -48 -85 -87 -87 -86 -7 6 47 81
79 111 33 30 79 64 87 64 2 0 -33 -40 -79 -89z m3560 -78 c22 -56 50 -103 91
-154 33 -40 57 -75 54 -78 -6 -6 -122 107 -136 134 -19 35 -58 199 -44 184 2
-2 18 -41 35 -86z m2339 -93 c39 -37 24 -94 -30 -113 -22 -8 -68 45 -68 78 0
52 58 72 98 35z m-160 -21 c2 -11 -8 -20 -29 -28 -39 -14 -46 -9 -31 25 14 29
55 31 60 3z m-172 -50 c3 -6 -3 -21 -15 -32 -17 -18 -21 -19 -21 -5 0 9 -3 23
-6 32 -4 11 0 16 14 16 12 0 24 -5 28 -11z m-103 -28 c-3 -12 -11 -17 -19 -14
-17 6 -18 20 -1 26 22 9 25 7 20 -12z m47 -12 c0 -20 -15 -26 -25 -9 -9 15 3
43 15 35 5 -3 10 -15 10 -26z m528 9 c19 -19 14 -29 -8 -16 -20 13 -27 28 -12
28 4 0 13 -5 20 -12z m-458 -20 c0 -7 -4 -19 -9 -27 -11 -17 -23 1 -15 23 7
19 24 21 24 4z m-140 -133 c0 -17 -49 -57 -61 -49 -10 6 -11 57 -3 131 l7 52
28 -60 c16 -34 29 -67 29 -74z m4 116 c11 -12 16 -31 14 -53 l-3 -33 -23 42
c-32 62 -26 86 12 44z m586 -6 c21 -22 22 -29 12 -45 -7 -11 -12 -27 -12 -36
0 -26 -24 -10 -43 29 -19 38 -16 77 7 77 7 0 23 -11 36 -25z m-124 -54 c31
-48 29 -75 -8 -79 -37 -4 -68 29 -68 71 0 61 38 65 76 8z m228 3 c21 -21 20
-30 -6 -48 -22 -16 -69 -21 -81 -10 -8 8 11 57 26 66 19 12 44 9 61 -8z m-383
-82 c40 -20 68 -46 107 -97 99 -132 106 -163 84 -388 -10 -100 -13 -113 -51
-175 -30 -49 -37 -69 -29 -79 15 -19 -8 -69 -43 -94 -35 -25 -37 -52 -4 -84
28 -29 68 -32 122 -10 19 8 49 15 65 15 34 0 68 16 68 32 0 7 -17 8 -51 4 -41
-6 -55 -4 -70 10 -25 22 -24 65 2 98 25 32 49 33 117 1 78 -36 107 -33 154 15
21 23 38 50 38 60 0 12 9 22 24 26 13 3 36 19 52 35 22 23 28 39 28 76 1 62
-20 67 -75 19 -91 -77 -199 -83 -233 -12 -20 42 -20 83 0 116 15 25 15 25 10
1 -8 -38 13 -69 60 -87 82 -31 128 -7 178 94 15 28 31 52 36 52 6 0 16 12 22
26 11 24 13 22 30 -48 10 -40 18 -83 18 -96 0 -33 -34 -146 -70 -232 -18 -41
-32 -91 -32 -110 -1 -40 36 -153 91 -285 40 -94 61 -163 41 -135 -32 45 -85
164 -124 282 -30 88 -50 132 -58 130 -62 -16 -324 -405 -473 -702 -74 -146
-185 -414 -227 -545 -74 -229 -158 -502 -173 -565 -21 -84 -54 -182 -67 -197
-6 -7 -18 -13 -27 -13 -37 1 -39 11 -30 150 13 198 10 190 74 190 36 0 59 5
69 16 23 22 13 30 -45 37 -29 4 -57 11 -63 17 -22 22 -28 306 -12 530 19 250
21 468 5 540 -6 28 -8 54 -5 57 3 3 22 -1 43 -9 21 -9 81 -21 133 -28 111 -15
171 -6 266 39 60 28 136 103 198 195 48 72 15 58 -80 -34 -121 -117 -176 -145
-289 -145 -68 0 -92 5 -162 33 -45 19 -87 40 -93 47 -6 8 -15 54 -20 102 -4
49 -13 108 -20 132 -16 59 -2 71 91 81 76 8 81 11 129 80 l15 22 53 -21 c73
-29 127 -27 192 7 96 49 97 91 1 48 -71 -32 -135 -34 -194 -6 -38 18 -52 35
-104 123 -33 56 -63 110 -66 120 -7 19 16 192 34 262 13 49 82 188 116 233 58
77 133 92 224 44z m389 8 c0 -5 -8 -10 -17 -10 -15 0 -16 2 -3 10 19 12 20 12
20 0z m81 -9 c31 -25 21 -34 -22 -20 -42 15 -43 15 -34 28 9 16 30 13 56 -8z
m1589 -1 c6 -11 8 -20 6 -20 -3 0 -10 9 -16 20 -6 11 -8 20 -6 20 3 0 10 -9
16 -20z m-2617 -37 c8 -10 19 -30 22 -45 9 -37 -15 -46 -61 -25 -37 18 -43 40
-17 69 20 23 36 23 56 1z m243 -24 c-4 -23 -13 -54 -22 -70 -12 -24 -21 -29
-50 -29 -20 0 -34 3 -32 8 2 4 12 31 23 60 16 41 24 52 42 52 12 0 25 5 28 10
13 21 17 9 11 -31z m608 19 c17 -63 -5 -89 -58 -69 -39 16 -36 58 7 76 43 19
44 19 51 -7z m2196 -33 c-51 -52 -113 -85 -156 -84 -27 0 -26 2 14 17 24 9 73
39 110 67 37 29 69 50 71 48 3 -2 -15 -24 -39 -48z m-4884 -61 c-4 -20 -10
-34 -13 -30 -3 3 -2 21 1 42 4 20 10 34 13 30 3 -3 2 -21 -1 -42z m2924 31
c17 -21 3 -35 -36 -35 -38 0 -41 5 -17 32 20 22 36 23 53 3z m-90 -78 c13 -24
13 -30 0 -54 -28 -50 -105 -56 -134 -11 -15 24 20 69 65 85 43 15 50 13 69
-20z m58 12 c-20 -13 -38 -11 -38 5 0 9 8 12 26 8 19 -3 22 -7 12 -13z m-1118
-52 c14 -26 14 -29 -10 -47 -50 -39 -106 -9 -79 43 25 46 64 48 89 4z m1167
17 c2 -7 -10 -14 -27 -16 -32 -5 -46 4 -35 23 9 13 57 8 62 -7z m850 10 c-3
-3 -12 -4 -19 -1 -8 3 -5 6 6 6 11 1 17 -2 13 -5z m-6459 -24 c60 -37 82 -149
29 -147 -12 0 -29 -3 -38 -7 -11 -5 -22 6 -42 46 -31 61 -34 90 -11 112 20 20
22 20 62 -4z m5582 -60 c22 -22 40 -49 40 -60 0 -24 0 -24 -44 -3 -22 10 -39
27 -46 46 -23 68 -7 74 50 17z m66 13 c14 -19 19 -65 7 -76 -8 -9 -45 72 -37
84 8 13 15 11 30 -8z m-1176 -13 c0 -5 -8 -10 -17 -10 -15 0 -16 2 -3 10 19
12 20 12 20 0z m170 -26 c12 -30 -1 -60 -30 -69 -31 -10 -39 2 -26 37 22 65
40 75 56 32z m-140 -34 c33 -46 5 -65 -55 -38 -24 11 -34 45 -18 61 16 17 53
5 73 -23z m1025 -23 c30 -23 8 -37 -56 -37 -32 0 -59 3 -59 7 0 3 7 15 17 25
19 21 71 24 98 5z m76 -7 c12 0 12 -27 0 -34 -5 -3 -17 6 -26 21 -16 24 -16
26 0 20 9 -4 21 -7 26 -7z m-5576 -31 c-4 -5 -13 -9 -22 -9 -13 0 -13 3 -3 15
13 15 35 11 25 -6z m5549 -14 c9 -23 -3 -43 -39 -65 -46 -28 -89 -26 -114 6
-24 30 -27 54 -8 55 6 0 37 0 68 -1 32 -1 60 3 64 9 9 15 22 14 29 -4z m86
-130 c0 -55 -47 -105 -99 -105 -24 0 -81 20 -81 29 0 3 21 14 48 23 26 10 63
31 82 47 43 37 50 38 50 6z m-1050 -37 c0 -22 -17 -41 -30 -33 -8 5 -7 12 6
26 20 22 24 23 24 7z m48 -47 c-3 -20 -5 -21 -22 -8 -13 10 -16 20 -11 36 6
21 9 22 22 8 8 -8 13 -24 11 -36z m803 -7 c66 -30 66 -39 0 -69 -23 -10 -50
-15 -64 -11 -32 8 -53 56 -37 85 14 27 30 26 101 -5z m-856 -8 c19 -8 35 -19
35 -25 0 -22 -130 -45 -137 -24 -5 14 40 63 57 63 6 0 26 -7 45 -14z m-4380
-32 c0 -12 -8 -20 -22 -22 -26 -4 -28 1 -12 29 13 24 34 20 34 -7z m4451 -41
c9 -35 -20 -88 -62 -114 -26 -16 -40 -18 -66 -11 l-33 8 26 7 c41 10 44 35 9
67 -37 35 -37 40 -2 41 15 0 43 6 62 13 52 20 59 19 66 -11z m1247 -68 c-13
-49 -38 -130 -54 -178 -17 -49 -33 -111 -36 -139 -5 -40 -8 -46 -16 -33 -13
25 7 134 48 254 29 87 75 194 81 188 1 -1 -9 -42 -23 -92z m-6798 42 c8 -13
22 -54 31 -91 17 -65 17 -68 -4 -110 -19 -38 -21 -50 -12 -97 19 -101 78 -139
112 -71 l16 33 7 -33 c4 -18 12 -39 17 -45 17 -21 55 -15 76 12 11 13 22 21
26 18 15 -15 5 -89 -19 -128 -15 -27 -27 -66 -31 -110 -10 -96 -59 -152 -95
-109 -8 9 -31 28 -53 41 -38 24 -38 25 -33 76 4 49 -7 97 -24 97 -4 0 -24 15
-43 34 -43 40 -47 78 -16 156 31 79 27 114 -16 147 -64 49 -74 62 -74 96 0 25
9 43 35 70 42 43 77 48 100 14z m5429 -59 c-7 -11 -41 -10 -65 2 -21 12 -26
56 -6 63 14 5 79 -52 71 -65z m481 -9 c-24 -11 -60 -18 -90 -17 l-50 1 62 8
c34 4 70 12 80 18 10 6 23 10 28 10 6 0 -8 -9 -30 -20z m-155 1 c8 -5 11 -10
5 -10 -5 0 -17 5 -25 10 -8 5 -10 10 -5 10 6 0 17 -5 25 -10z m-5655 -187 c30
-45 32 -82 6 -114 -19 -23 -20 -23 -40 -5 -11 10 -25 42 -31 71 -9 45 -8 58 7
89 16 33 18 35 25 16 4 -11 19 -37 33 -57z m2135 -183 c20 -6 21 -8 5 -8 -11
0 -29 3 -40 8 -25 11 1 11 35 0z m-1956 -146 c20 -8 21 -28 2 -43 -17 -14 -41
11 -32 34 6 17 8 17 30 9z m-338 -401 c13 -36 24 -46 76 -73 34 -16 70 -30 80
-30 10 0 39 19 65 43 30 27 44 35 38 22 -34 -84 -39 -105 -28 -116 8 -8 16 -8
32 0 16 9 22 8 30 -8 6 -10 54 -43 107 -71 91 -49 100 -52 132 -42 33 10 38 9
74 -23 21 -19 34 -35 29 -35 -4 0 -52 11 -104 24 -106 27 -211 73 -387 171
-146 81 -220 108 -257 94 -47 -18 -48 7 -1 32 l43 24 3 85 3 85 25 -70 c13
-38 31 -89 40 -112z m5271 -45 c-2 -18 -4 -6 -4 27 0 33 2 48 4 33 2 -15 2
-42 0 -60z m-3500 50 c-3 -8 -6 -5 -6 6 -1 11 2 17 5 13 3 -3 4 -12 1 -19z
m-12 -78 c-4 -28 -9 -49 -12 -47 -2 3 -1 28 3 56 4 28 9 50 11 47 3 -3 2 -28
-2 -56z m6422 -11 c-24 -14 -82 -31 -73 -21 8 8 66 30 81 31 6 0 2 -4 -8 -10z
m-2920 -31 c-3 -8 -6 -5 -6 6 -1 11 2 17 5 13 3 -3 4 -12 1 -19z m-3520 -65
c-3 -10 -5 -2 -5 17 0 19 2 27 5 18 2 -10 2 -26 0 -35z m3510 -30 c-3 -10 -5
-2 -5 17 0 19 2 27 5 18 2 -10 2 -26 0 -35z m1409 0 c-7 -51 -45 -177 -52
-170 -5 4 48 217 54 217 3 0 2 -21 -2 -47z m-4929 -45 c-2 -13 -4 -5 -4 17 -1
22 1 32 4 23 2 -10 2 -28 0 -40z m3531 -283 c0 -85 -2 -110 -8 -85 -15 61 -29
253 -23 300 l7 45 12 -70 c7 -38 12 -124 12 -190z m2112 252 c0 -9 -224 -194
-299 -248 -43 -31 -44 -32 -132 -25 -88 7 -88 7 -95 -18 -8 -33 0 -43 37 -51
28 -6 30 -9 16 -22 -14 -14 -22 -9 -79 52 -53 56 -95 125 -97 159 -1 5 30 6
68 2 80 -8 123 0 119 22 -2 8 -41 34 -87 58 -124 65 -125 72 -1 44 47 -10 112
-22 145 -25 65 -7 261 16 336 39 45 14 69 19 69 13z m-6468 -41 c14 -11 7 -12
-52 -12 -59 1 -66 3 -47 13 29 16 78 16 99 -1z m-170 -81 c-9 -24 -18 -43 -20
-41 -6 7 21 86 29 86 4 0 1 -20 -9 -45z m6138 -336 c0 -19 -5 -29 -15 -29 -21
0 -29 24 -15 49 14 28 30 18 30 -20z m-5656 -84 c27 -76 70 -254 64 -261 -3
-2 -15 33 -28 79 -13 45 -36 117 -52 160 -28 78 -38 139 -18 107 5 -8 21 -46
34 -85z m5646 25 c-20 -13 -33 -13 -25 0 3 6 14 10 23 10 15 0 15 -2 2 -10z
m-4000 -166 c0 -8 -4 -12 -10 -9 -5 3 -10 10 -10 16 0 5 5 9 10 9 6 0 10 -7
10 -16z m1067 -116 c-2 -13 -4 -5 -4 17 -1 22 1 32 4 23 2 -10 2 -28 0 -40z
m-243 -120 c-10 -228 -36 -324 -109 -402 -26 -29 -27 -29 -103 -21 -42 5 -95
9 -117 10 -37 2 -41 5 -62 51 -28 62 -28 69 -1 50 25 -18 54 -21 62 -7 3 4 -5
36 -19 70 -18 46 -39 77 -83 119 -46 45 -63 69 -76 112 -10 30 -19 60 -22 66
-3 8 27 10 108 7 126 -5 278 14 368 46 30 11 56 20 57 20 2 1 0 -54 -3 -121z
m-2350 -398 c4 -168 9 -327 11 -355 4 -44 3 -46 -6 -20 -13 38 -28 350 -28
560 0 268 16 142 23 -185z m1927 125 c7 -13 3 -12 -10 5 -11 14 -21 30 -21 35
0 11 14 -7 31 -40z m418 -23 c-13 -42 -38 -80 -86 -135 -29 -32 -33 -45 -34
-95 -1 -31 -3 -46 -6 -32 -13 85 -15 91 -36 99 -19 7 -17 9 15 15 47 9 100 68
128 143 11 30 21 59 21 66 1 7 3 4 6 -6 2 -9 -1 -34 -8 -55z m-1074 -82 c4
-84 4 -84 -5 -20 -5 36 -11 88 -14 115 -4 42 -3 45 5 20 5 -16 11 -68 14 -115z
m12 -202 c-2 -18 -4 -6 -4 27 0 33 2 48 4 33 2 -15 2 -42 0 -60z m-217 -30 c0
-12 -54 17 -71 38 -11 14 -4 12 29 -6 23 -13 42 -27 42 -32z m232 -103 c3 -49
2 -79 -2 -65 -8 25 -13 167 -6 159 2 -2 6 -44 8 -94z m2925 48 c-3 -10 -5 -4
-5 12 0 17 2 24 5 18 2 -7 2 -21 0 -30z m-10 -80 c-3 -10 -5 -2 -5 17 0 19 2
27 5 18 2 -10 2 -26 0 -35z m-1134 -60 c-7 -2 -19 -2 -25 0 -7 3 -2 5 12 5 14
0 19 -2 13 -5z m-969 -415 c-3 -5 -12 -4 -20 3 -7 6 -11 15 -8 21 3 5 12 4 20
-3 7 -6 11 -15 8 -21z m2062 -39 c12 -20 108 -59 146 -59 20 0 48 4 62 10 35
13 34 6 -22 -125 -60 -138 -84 -159 -182 -153 -133 8 -149 53 -79 233 38 99
57 123 75 94z m-4181 -39 c-7 -12 -72 -12 -100 0 -14 6 -1 9 43 9 40 1 61 -3
57 -9z m3445 -100 c44 -12 99 -2 138 25 l22 16 0 -135 0 -135 -30 -16 c-42
-22 -68 -19 -137 17 -65 33 -89 32 -58 -2 30 -33 99 -53 161 -47 l56 6 -6 -34
c-4 -19 -18 -59 -31 -89 -20 -44 -30 -56 -59 -66 -45 -15 -65 -4 -104 57 -57
88 -64 116 -53 196 6 40 13 101 16 137 3 36 9 78 12 93 5 28 5 28 19 8 8 -11
33 -25 54 -31z m-912 -290 c26 -52 28 -92 5 -111 -24 -20 -143 -18 -176 4 -21
14 -107 117 -107 129 0 2 33 2 72 0 44 -2 91 3 118 12 25 7 50 13 55 12 6 -1
20 -22 33 -46z"/>
<path d="M838 5768 c-28 -30 -29 -35 -23 -87 4 -34 2 -68 -5 -86 l-12 -30 -27
33 c-15 17 -33 32 -39 32 -20 0 -13 -43 13 -82 13 -20 33 -60 42 -90 24 -70
47 -75 72 -16 l18 43 23 -53 c24 -54 56 -84 65 -60 3 7 -4 42 -16 78 -14 44
-22 101 -25 180 -6 144 -9 156 -35 163 -16 4 -30 -3 -51 -25z m65 -128 c3 -87
11 -145 26 -190 14 -47 16 -60 5 -45 -8 11 -20 36 -26 57 -18 60 -44 58 -65
-7 -5 -16 -13 -30 -18 -30 -4 0 -15 23 -25 51 -9 28 -26 64 -38 79 -12 15 -22
33 -22 39 0 6 7 0 16 -12 8 -12 26 -22 39 -22 32 0 48 50 39 118 -6 46 -4 53
21 77 15 15 30 24 35 19 4 -5 10 -65 13 -134z"/>
<path d="M5192 5769 c-18 -12 -42 -39 -53 -60 -10 -21 -37 -67 -59 -101 -41
-63 -83 -177 -95 -261 l-7 -48 39 7 39 6 25 -64 c33 -84 52 -84 61 2 11 111
65 227 117 254 15 8 51 18 79 22 29 3 49 11 46 16 -8 13 -92 -1 -135 -23 -54
-27 -128 -182 -130 -273 0 -29 -2 -27 -27 24 -25 50 -30 55 -60 55 -31 0 -32
1 -26 35 13 73 55 187 84 230 17 25 42 66 56 93 13 26 40 57 59 70 32 21 45
37 28 37 -5 0 -23 -10 -41 -21z"/>
</g>
</svg>
